<mxfile host="Electron" modified="2024-10-29T17:53:29.402Z" agent="Mozilla/5.0 (Windows NT 10.0; Win64; x64) AppleWebKit/537.36 (KHTML, like Gecko) draw.io/24.1.0 Chrome/120.0.6099.109 Electron/28.1.0 Safari/537.36" etag="7nJoyYagdFiJvo-D_B-Z" version="24.1.0" type="device" pages="4">
  <diagram name="Страница — 1" id="NS8aFWiQ_B5S4KtpP5qh">
    <mxGraphModel dx="1745" dy="584" grid="1" gridSize="10" guides="1" tooltips="1" connect="1" arrows="1" fold="1" page="1" pageScale="1" pageWidth="827" pageHeight="1169" math="0" shadow="0">
      <root>
        <mxCell id="0" />
        <mxCell id="1" parent="0" />
        <mxCell id="2SP10-1VoWnFuzJiY-O3-1" value="Рабочий блокнот" style="text;html=1;align=center;verticalAlign=middle;whiteSpace=wrap;rounded=0;fontSize=14;" vertex="1" parent="1">
          <mxGeometry x="-760" y="130" width="120" height="30" as="geometry" />
        </mxCell>
        <mxCell id="2SP10-1VoWnFuzJiY-O3-2" value="2. User story" style="text;html=1;align=center;verticalAlign=middle;whiteSpace=wrap;rounded=0;fontStyle=1;fontSize=14;" vertex="1" parent="1">
          <mxGeometry x="-760" y="180" width="90" height="30" as="geometry" />
        </mxCell>
        <mxCell id="2SP10-1VoWnFuzJiY-O3-3" value="1. Название продукта" style="text;html=1;align=center;verticalAlign=middle;whiteSpace=wrap;rounded=0;fontStyle=1;fontSize=14;" vertex="1" parent="1">
          <mxGeometry x="-760" y="80" width="160" height="30" as="geometry" />
        </mxCell>
        <mxCell id="2SP10-1VoWnFuzJiY-O3-4" value="&lt;div style=&quot;font-size: 14px;&quot;&gt;Я как пользователь хочу, получить уведомление о степени актуальности задачи,&amp;nbsp;&lt;span style=&quot;background-color: initial; font-size: 14px;&quot;&gt;чтобы я мог эффективнее выставлять приоритеты в работе.&lt;/span&gt;&lt;/div&gt;" style="text;html=1;align=left;verticalAlign=middle;whiteSpace=wrap;rounded=0;fontSize=14;" vertex="1" parent="1">
          <mxGeometry x="-760" y="380" width="720" height="40" as="geometry" />
        </mxCell>
        <mxCell id="2SP10-1VoWnFuzJiY-O3-5" value="&lt;div style=&quot;font-size: 14px;&quot;&gt;User story (пользовательская история) — это простой и короткий текст, который описывает&amp;nbsp;&lt;span style=&quot;background-color: initial; font-size: 14px;&quot;&gt;потребности и ожидания заказчика от продукта или услуги. Основная цель —понять, что именно&amp;nbsp;&lt;/span&gt;&lt;span style=&quot;background-color: initial; font-size: 14px;&quot;&gt;нужно создать, чтобы удовлетворить потребности конечного пользователя.&lt;/span&gt;&lt;/div&gt;&lt;div style=&quot;font-size: 14px;&quot;&gt;&lt;br style=&quot;font-size: 14px;&quot;&gt;Формула составления US: кто + что + зачем.&lt;/div&gt;" style="text;html=1;align=left;verticalAlign=middle;whiteSpace=wrap;rounded=0;fontSize=14;" vertex="1" parent="1">
          <mxGeometry x="-760" y="230" width="680" height="80" as="geometry" />
        </mxCell>
        <mxCell id="2SP10-1VoWnFuzJiY-O3-6" value="User story:" style="text;html=1;align=center;verticalAlign=middle;whiteSpace=wrap;rounded=0;fontStyle=0;fontSize=14;" vertex="1" parent="1">
          <mxGeometry x="-760" y="330" width="80" height="30" as="geometry" />
        </mxCell>
        <mxCell id="MYyXold9cq77IcxTmUq0-1" value="3. Макет" style="text;html=1;align=center;verticalAlign=middle;whiteSpace=wrap;rounded=0;fontSize=14;fontStyle=1" vertex="1" parent="1">
          <mxGeometry x="-760" y="440" width="60" height="30" as="geometry" />
        </mxCell>
        <mxCell id="MYyXold9cq77IcxTmUq0-2" value="&lt;div style=&quot;font-size: 14px;&quot;&gt;Макеты или прототипы системы нужны для того, чтобы дизайнер мог понять, что именно ему&amp;nbsp;&lt;span style=&quot;background-color: initial;&quot;&gt;необходимо изобразить, а также для того, чтобы понять пользовательский путь.&lt;/span&gt;&lt;/div&gt;" style="text;html=1;align=left;verticalAlign=middle;whiteSpace=wrap;rounded=0;fontSize=14;" vertex="1" parent="1">
          <mxGeometry x="-760" y="490" width="720" height="40" as="geometry" />
        </mxCell>
      </root>
    </mxGraphModel>
  </diagram>
  <diagram id="wKKQ2-lS6qXCB4c0_bxK" name="Страница — 2">
    <mxGraphModel dx="1733" dy="1102" grid="1" gridSize="10" guides="1" tooltips="1" connect="1" arrows="1" fold="1" page="1" pageScale="1" pageWidth="1169" pageHeight="827" math="0" shadow="0">
      <root>
        <mxCell id="0" />
        <mxCell id="1" parent="0" />
        <mxCell id="Z_lSCng-xkJckpSG0J26-44" value="" style="rounded=0;whiteSpace=wrap;html=1;" vertex="1" parent="1">
          <mxGeometry x="2440" y="160" width="800" height="400" as="geometry" />
        </mxCell>
        <mxCell id="Z_lSCng-xkJckpSG0J26-45" value="" style="rounded=0;whiteSpace=wrap;html=1;" vertex="1" parent="1">
          <mxGeometry x="1240" y="160" width="800" height="400" as="geometry" />
        </mxCell>
        <mxCell id="Z_lSCng-xkJckpSG0J26-46" value="" style="rounded=0;whiteSpace=wrap;html=1;" vertex="1" parent="1">
          <mxGeometry x="40" y="160" width="800" height="400" as="geometry" />
        </mxCell>
        <mxCell id="Z_lSCng-xkJckpSG0J26-47" value="" style="verticalLabelPosition=bottom;verticalAlign=top;html=1;shape=mxgraph.basic.layered_rect;dx=10;outlineConnect=0;whiteSpace=wrap;" vertex="1" parent="1">
          <mxGeometry x="2480" y="403" width="120" height="114" as="geometry" />
        </mxCell>
        <mxCell id="Z_lSCng-xkJckpSG0J26-48" value="Задачи (Список&amp;nbsp; задач)" style="text;html=1;align=center;verticalAlign=middle;whiteSpace=wrap;rounded=0;" vertex="1" parent="1">
          <mxGeometry x="2490" y="424" width="90" height="60" as="geometry" />
        </mxCell>
        <mxCell id="Z_lSCng-xkJckpSG0J26-49" value="Календарь (Сроки)" style="shape=table;startSize=30;container=1;collapsible=0;childLayout=tableLayout;strokeColor=default;fontSize=16;" vertex="1" parent="1">
          <mxGeometry x="2640" y="400" width="320" height="155" as="geometry" />
        </mxCell>
        <mxCell id="Z_lSCng-xkJckpSG0J26-50" style="shape=tableRow;horizontal=0;startSize=0;swimlaneHead=0;swimlaneBody=0;strokeColor=inherit;top=0;left=0;bottom=0;right=0;collapsible=0;dropTarget=0;fillColor=none;points=[[0,0.5],[1,0.5]];portConstraint=eastwest;fontSize=16;" vertex="1" parent="Z_lSCng-xkJckpSG0J26-49">
          <mxGeometry y="30" width="320" height="25" as="geometry" />
        </mxCell>
        <mxCell id="Z_lSCng-xkJckpSG0J26-51" value="Задача" style="shape=partialRectangle;html=1;whiteSpace=wrap;connectable=0;strokeColor=inherit;overflow=hidden;fillColor=none;top=0;left=0;bottom=0;right=0;pointerEvents=1;fontSize=16;" vertex="1" parent="Z_lSCng-xkJckpSG0J26-50">
          <mxGeometry width="107" height="25" as="geometry">
            <mxRectangle width="107" height="25" as="alternateBounds" />
          </mxGeometry>
        </mxCell>
        <mxCell id="Z_lSCng-xkJckpSG0J26-52" value="&lt;font color=&quot;#ff0000&quot; style=&quot;font-size: 15px;&quot;&gt;&lt;u&gt;Напоминание&lt;/u&gt;&lt;/font&gt;" style="shape=partialRectangle;html=1;whiteSpace=wrap;connectable=0;strokeColor=inherit;overflow=hidden;fillColor=none;top=0;left=0;bottom=0;right=0;pointerEvents=1;fontSize=16;" vertex="1" parent="Z_lSCng-xkJckpSG0J26-50">
          <mxGeometry x="107" width="106" height="25" as="geometry">
            <mxRectangle width="106" height="25" as="alternateBounds" />
          </mxGeometry>
        </mxCell>
        <mxCell id="Z_lSCng-xkJckpSG0J26-53" value="Дедлайн" style="shape=partialRectangle;html=1;whiteSpace=wrap;connectable=0;strokeColor=inherit;overflow=hidden;fillColor=none;top=0;left=0;bottom=0;right=0;pointerEvents=1;fontSize=16;" vertex="1" parent="Z_lSCng-xkJckpSG0J26-50">
          <mxGeometry x="213" width="107" height="25" as="geometry">
            <mxRectangle width="107" height="25" as="alternateBounds" />
          </mxGeometry>
        </mxCell>
        <mxCell id="Z_lSCng-xkJckpSG0J26-54" value="" style="shape=tableRow;horizontal=0;startSize=0;swimlaneHead=0;swimlaneBody=0;strokeColor=inherit;top=0;left=0;bottom=0;right=0;collapsible=0;dropTarget=0;fillColor=none;points=[[0,0.5],[1,0.5]];portConstraint=eastwest;fontSize=16;" vertex="1" parent="Z_lSCng-xkJckpSG0J26-49">
          <mxGeometry y="55" width="320" height="25" as="geometry" />
        </mxCell>
        <mxCell id="Z_lSCng-xkJckpSG0J26-55" value="Задача 1" style="shape=partialRectangle;html=1;whiteSpace=wrap;connectable=0;strokeColor=inherit;overflow=hidden;fillColor=none;top=0;left=0;bottom=0;right=0;pointerEvents=1;fontSize=16;" vertex="1" parent="Z_lSCng-xkJckpSG0J26-54">
          <mxGeometry width="107" height="25" as="geometry">
            <mxRectangle width="107" height="25" as="alternateBounds" />
          </mxGeometry>
        </mxCell>
        <mxCell id="Z_lSCng-xkJckpSG0J26-56" value="- - -" style="shape=partialRectangle;html=1;whiteSpace=wrap;connectable=0;strokeColor=inherit;overflow=hidden;fillColor=none;top=0;left=0;bottom=0;right=0;pointerEvents=1;fontSize=16;" vertex="1" parent="Z_lSCng-xkJckpSG0J26-54">
          <mxGeometry x="107" width="106" height="25" as="geometry">
            <mxRectangle width="106" height="25" as="alternateBounds" />
          </mxGeometry>
        </mxCell>
        <mxCell id="Z_lSCng-xkJckpSG0J26-57" value="12.01.22" style="shape=partialRectangle;html=1;whiteSpace=wrap;connectable=0;strokeColor=inherit;overflow=hidden;fillColor=none;top=0;left=0;bottom=0;right=0;pointerEvents=1;fontSize=16;" vertex="1" parent="Z_lSCng-xkJckpSG0J26-54">
          <mxGeometry x="213" width="107" height="25" as="geometry">
            <mxRectangle width="107" height="25" as="alternateBounds" />
          </mxGeometry>
        </mxCell>
        <mxCell id="Z_lSCng-xkJckpSG0J26-58" value="" style="shape=tableRow;horizontal=0;startSize=0;swimlaneHead=0;swimlaneBody=0;strokeColor=inherit;top=0;left=0;bottom=0;right=0;collapsible=0;dropTarget=0;fillColor=none;points=[[0,0.5],[1,0.5]];portConstraint=eastwest;fontSize=16;" vertex="1" parent="Z_lSCng-xkJckpSG0J26-49">
          <mxGeometry y="80" width="320" height="24" as="geometry" />
        </mxCell>
        <mxCell id="Z_lSCng-xkJckpSG0J26-59" value="Задача 2" style="shape=partialRectangle;html=1;whiteSpace=wrap;connectable=0;strokeColor=inherit;overflow=hidden;fillColor=none;top=0;left=0;bottom=0;right=0;pointerEvents=1;fontSize=16;" vertex="1" parent="Z_lSCng-xkJckpSG0J26-58">
          <mxGeometry width="107" height="24" as="geometry">
            <mxRectangle width="107" height="24" as="alternateBounds" />
          </mxGeometry>
        </mxCell>
        <mxCell id="Z_lSCng-xkJckpSG0J26-60" value="18.01.22" style="shape=partialRectangle;html=1;whiteSpace=wrap;connectable=0;strokeColor=inherit;overflow=hidden;fillColor=none;top=0;left=0;bottom=0;right=0;pointerEvents=1;fontSize=16;" vertex="1" parent="Z_lSCng-xkJckpSG0J26-58">
          <mxGeometry x="107" width="106" height="24" as="geometry">
            <mxRectangle width="106" height="24" as="alternateBounds" />
          </mxGeometry>
        </mxCell>
        <mxCell id="Z_lSCng-xkJckpSG0J26-61" value="18.01.22" style="shape=partialRectangle;html=1;whiteSpace=wrap;connectable=0;strokeColor=inherit;overflow=hidden;fillColor=none;top=0;left=0;bottom=0;right=0;pointerEvents=1;fontSize=16;" vertex="1" parent="Z_lSCng-xkJckpSG0J26-58">
          <mxGeometry x="213" width="107" height="24" as="geometry">
            <mxRectangle width="107" height="24" as="alternateBounds" />
          </mxGeometry>
        </mxCell>
        <mxCell id="Z_lSCng-xkJckpSG0J26-62" value="" style="shape=tableRow;horizontal=0;startSize=0;swimlaneHead=0;swimlaneBody=0;strokeColor=inherit;top=0;left=0;bottom=0;right=0;collapsible=0;dropTarget=0;fillColor=none;points=[[0,0.5],[1,0.5]];portConstraint=eastwest;fontSize=16;" vertex="1" parent="Z_lSCng-xkJckpSG0J26-49">
          <mxGeometry y="104" width="320" height="26" as="geometry" />
        </mxCell>
        <mxCell id="Z_lSCng-xkJckpSG0J26-63" value="Задача 3" style="shape=partialRectangle;html=1;whiteSpace=wrap;connectable=0;strokeColor=inherit;overflow=hidden;fillColor=none;top=0;left=0;bottom=0;right=0;pointerEvents=1;fontSize=16;" vertex="1" parent="Z_lSCng-xkJckpSG0J26-62">
          <mxGeometry width="107" height="26" as="geometry">
            <mxRectangle width="107" height="26" as="alternateBounds" />
          </mxGeometry>
        </mxCell>
        <mxCell id="Z_lSCng-xkJckpSG0J26-64" value="19.01.22" style="shape=partialRectangle;html=1;whiteSpace=wrap;connectable=0;strokeColor=inherit;overflow=hidden;fillColor=none;top=0;left=0;bottom=0;right=0;pointerEvents=1;fontSize=16;" vertex="1" parent="Z_lSCng-xkJckpSG0J26-62">
          <mxGeometry x="107" width="106" height="26" as="geometry">
            <mxRectangle width="106" height="26" as="alternateBounds" />
          </mxGeometry>
        </mxCell>
        <mxCell id="Z_lSCng-xkJckpSG0J26-65" value="19.01.22" style="shape=partialRectangle;html=1;whiteSpace=wrap;connectable=0;strokeColor=inherit;overflow=hidden;fillColor=none;top=0;left=0;bottom=0;right=0;pointerEvents=1;fontSize=16;" vertex="1" parent="Z_lSCng-xkJckpSG0J26-62">
          <mxGeometry x="213" width="107" height="26" as="geometry">
            <mxRectangle width="107" height="26" as="alternateBounds" />
          </mxGeometry>
        </mxCell>
        <mxCell id="Z_lSCng-xkJckpSG0J26-66" style="shape=tableRow;horizontal=0;startSize=0;swimlaneHead=0;swimlaneBody=0;strokeColor=inherit;top=0;left=0;bottom=0;right=0;collapsible=0;dropTarget=0;fillColor=none;points=[[0,0.5],[1,0.5]];portConstraint=eastwest;fontSize=16;" vertex="1" parent="Z_lSCng-xkJckpSG0J26-49">
          <mxGeometry y="130" width="320" height="25" as="geometry" />
        </mxCell>
        <mxCell id="Z_lSCng-xkJckpSG0J26-67" value="Задача 4" style="shape=partialRectangle;html=1;whiteSpace=wrap;connectable=0;strokeColor=inherit;overflow=hidden;fillColor=none;top=0;left=0;bottom=0;right=0;pointerEvents=1;fontSize=16;" vertex="1" parent="Z_lSCng-xkJckpSG0J26-66">
          <mxGeometry width="107" height="25" as="geometry">
            <mxRectangle width="107" height="25" as="alternateBounds" />
          </mxGeometry>
        </mxCell>
        <mxCell id="Z_lSCng-xkJckpSG0J26-68" value="24.01.22..." style="shape=partialRectangle;html=1;whiteSpace=wrap;connectable=0;strokeColor=inherit;overflow=hidden;fillColor=none;top=0;left=0;bottom=0;right=0;pointerEvents=1;fontSize=16;" vertex="1" parent="Z_lSCng-xkJckpSG0J26-66">
          <mxGeometry x="107" width="106" height="25" as="geometry">
            <mxRectangle width="106" height="25" as="alternateBounds" />
          </mxGeometry>
        </mxCell>
        <mxCell id="Z_lSCng-xkJckpSG0J26-69" value="31.01.22" style="shape=partialRectangle;html=1;whiteSpace=wrap;connectable=0;strokeColor=inherit;overflow=hidden;fillColor=none;top=0;left=0;bottom=0;right=0;pointerEvents=1;fontSize=16;" vertex="1" parent="Z_lSCng-xkJckpSG0J26-66">
          <mxGeometry x="213" width="107" height="25" as="geometry">
            <mxRectangle width="107" height="25" as="alternateBounds" />
          </mxGeometry>
        </mxCell>
        <mxCell id="Z_lSCng-xkJckpSG0J26-70" value="Настройки" style="label;whiteSpace=wrap;html=1;image=img/clipart/Gear_128x128.png" vertex="1" parent="1">
          <mxGeometry x="2690" y="169" width="125" height="40" as="geometry" />
        </mxCell>
        <mxCell id="Z_lSCng-xkJckpSG0J26-71" value="План работ на январь 2022" style="swimlane;fontStyle=0;childLayout=stackLayout;horizontal=1;startSize=40;fillColor=none;horizontalStack=0;resizeParent=1;resizeParentMax=0;resizeLast=0;collapsible=1;marginBottom=0;html=1;" vertex="1" parent="1">
          <mxGeometry x="2480" y="240" width="480" height="144" as="geometry">
            <mxRectangle x="80" y="240" width="90" height="40" as="alternateBounds" />
          </mxGeometry>
        </mxCell>
        <mxCell id="Z_lSCng-xkJckpSG0J26-72" value="Задача 1 - &quot;Согласовать акт приемки 1-го этапа работ&quot;." style="text;strokeColor=default;fillColor=none;align=left;verticalAlign=top;spacingLeft=4;spacingRight=4;overflow=hidden;rotatable=0;points=[[0,0.5],[1,0.5]];portConstraint=eastwest;whiteSpace=wrap;html=1;" vertex="1" parent="Z_lSCng-xkJckpSG0J26-71">
          <mxGeometry y="40" width="480" height="26" as="geometry" />
        </mxCell>
        <mxCell id="Z_lSCng-xkJckpSG0J26-73" value="Задача 2 - &quot;Составить протокол принятия 2-го этапа работ&quot;" style="text;strokeColor=default;fillColor=none;align=left;verticalAlign=top;spacingLeft=4;spacingRight=4;overflow=hidden;rotatable=0;points=[[0,0.5],[1,0.5]];portConstraint=eastwest;whiteSpace=wrap;html=1;" vertex="1" parent="Z_lSCng-xkJckpSG0J26-71">
          <mxGeometry y="66" width="480" height="26" as="geometry" />
        </mxCell>
        <mxCell id="Z_lSCng-xkJckpSG0J26-74" value="Задача 3 - &quot;Отправить документы на проверку куратору&quot;" style="text;strokeColor=default;fillColor=none;align=left;verticalAlign=top;spacingLeft=4;spacingRight=4;overflow=hidden;rotatable=0;points=[[0,0.5],[1,0.5]];portConstraint=eastwest;whiteSpace=wrap;html=1;labelBorderColor=none;" vertex="1" parent="Z_lSCng-xkJckpSG0J26-71">
          <mxGeometry y="92" width="480" height="26" as="geometry" />
        </mxCell>
        <mxCell id="Z_lSCng-xkJckpSG0J26-75" value="Задача 4- &quot;Подготовить НТД для внутреннего аудита&quot;." style="text;strokeColor=default;fillColor=none;align=left;verticalAlign=top;spacingLeft=4;spacingRight=4;overflow=hidden;rotatable=0;points=[[0,0.5],[1,0.5]];portConstraint=eastwest;whiteSpace=wrap;html=1;labelBorderColor=none;" vertex="1" parent="Z_lSCng-xkJckpSG0J26-71">
          <mxGeometry y="118" width="480" height="26" as="geometry" />
        </mxCell>
        <mxCell id="Z_lSCng-xkJckpSG0J26-76" value="Функции, фильтры и возможность сортировки по цвету, имени, времени создания, времени изменения,&amp;nbsp;&lt;font color=&quot;#ff0000&quot;&gt;&lt;u&gt;времени напоминания о статусе актуальности задачи и возможность &quot;включения&quot; данной функции.&lt;/u&gt;&lt;/font&gt;" style="rounded=1;whiteSpace=wrap;html=1;strokeColor=#FF0000;strokeWidth=2;" vertex="1" parent="1">
          <mxGeometry x="710" y="20" width="160" height="130" as="geometry" />
        </mxCell>
        <mxCell id="Z_lSCng-xkJckpSG0J26-77" value="Настройки. Иные настройки. Обратная связь." style="rounded=1;whiteSpace=wrap;html=1;" vertex="1" parent="1">
          <mxGeometry x="400" y="20" width="115" height="70" as="geometry" />
        </mxCell>
        <mxCell id="Z_lSCng-xkJckpSG0J26-78" value="" style="childLayout=tableLayout;recursiveResize=0;shadow=0;fillColor=none;" vertex="1" parent="1">
          <mxGeometry x="1280" y="221" width="650" height="319" as="geometry" />
        </mxCell>
        <mxCell id="Z_lSCng-xkJckpSG0J26-79" value="" style="shape=tableRow;horizontal=0;startSize=0;swimlaneHead=0;swimlaneBody=0;top=0;left=0;bottom=0;right=0;dropTarget=0;collapsible=0;recursiveResize=0;expand=0;fontStyle=0;fillColor=none;strokeColor=inherit;" vertex="1" parent="Z_lSCng-xkJckpSG0J26-78">
          <mxGeometry width="650" height="54" as="geometry" />
        </mxCell>
        <mxCell id="Z_lSCng-xkJckpSG0J26-80" value="Задача" style="connectable=0;recursiveResize=0;strokeColor=inherit;fillColor=none;align=center;whiteSpace=wrap;html=1;" vertex="1" parent="Z_lSCng-xkJckpSG0J26-79">
          <mxGeometry width="170" height="54" as="geometry">
            <mxRectangle width="170" height="54" as="alternateBounds" />
          </mxGeometry>
        </mxCell>
        <mxCell id="Z_lSCng-xkJckpSG0J26-81" value="Приступить к выполнению" style="connectable=0;recursiveResize=0;strokeColor=inherit;fillColor=none;align=center;whiteSpace=wrap;html=1;" vertex="1" parent="Z_lSCng-xkJckpSG0J26-79">
          <mxGeometry x="170" width="70" height="54" as="geometry">
            <mxRectangle width="70" height="54" as="alternateBounds" />
          </mxGeometry>
        </mxCell>
        <mxCell id="Z_lSCng-xkJckpSG0J26-82" value="Продолжительность (в днях)" style="connectable=0;recursiveResize=0;strokeColor=inherit;fillColor=none;align=center;whiteSpace=wrap;html=1;" vertex="1" parent="Z_lSCng-xkJckpSG0J26-79">
          <mxGeometry x="240" width="120" height="54" as="geometry">
            <mxRectangle width="120" height="54" as="alternateBounds" />
          </mxGeometry>
        </mxCell>
        <mxCell id="Z_lSCng-xkJckpSG0J26-83" value="Назначенное время уведомления" style="connectable=0;recursiveResize=0;strokeColor=inherit;fillColor=none;align=center;whiteSpace=wrap;html=1;" vertex="1" parent="Z_lSCng-xkJckpSG0J26-79">
          <mxGeometry x="360" width="100" height="54" as="geometry">
            <mxRectangle width="100" height="54" as="alternateBounds" />
          </mxGeometry>
        </mxCell>
        <mxCell id="Z_lSCng-xkJckpSG0J26-84" value="Исполнитель" style="connectable=0;recursiveResize=0;strokeColor=inherit;fillColor=none;align=center;whiteSpace=wrap;html=1;" vertex="1" parent="Z_lSCng-xkJckpSG0J26-79">
          <mxGeometry x="460" width="90" height="54" as="geometry">
            <mxRectangle width="90" height="54" as="alternateBounds" />
          </mxGeometry>
        </mxCell>
        <mxCell id="Z_lSCng-xkJckpSG0J26-85" value="Статус" style="connectable=0;recursiveResize=0;strokeColor=inherit;fillColor=none;align=center;whiteSpace=wrap;html=1;" vertex="1" parent="Z_lSCng-xkJckpSG0J26-79">
          <mxGeometry x="550" width="100" height="54" as="geometry">
            <mxRectangle width="100" height="54" as="alternateBounds" />
          </mxGeometry>
        </mxCell>
        <mxCell id="Z_lSCng-xkJckpSG0J26-86" style="shape=tableRow;horizontal=0;startSize=0;swimlaneHead=0;swimlaneBody=0;top=0;left=0;bottom=0;right=0;dropTarget=0;collapsible=0;recursiveResize=0;expand=0;fontStyle=0;fillColor=none;strokeColor=inherit;" vertex="1" parent="Z_lSCng-xkJckpSG0J26-78">
          <mxGeometry y="54" width="650" height="53" as="geometry" />
        </mxCell>
        <mxCell id="Z_lSCng-xkJckpSG0J26-87" value="&lt;span style=&quot;text-align: left;&quot;&gt;Согласовать акт приемки 1-го этапа работ&lt;/span&gt;" style="connectable=0;recursiveResize=0;strokeColor=inherit;fillColor=none;align=center;whiteSpace=wrap;html=1;" vertex="1" parent="Z_lSCng-xkJckpSG0J26-86">
          <mxGeometry width="170" height="53" as="geometry">
            <mxRectangle width="170" height="53" as="alternateBounds" />
          </mxGeometry>
        </mxCell>
        <mxCell id="Z_lSCng-xkJckpSG0J26-88" value="10.01.22" style="connectable=0;recursiveResize=0;strokeColor=inherit;fillColor=none;align=center;whiteSpace=wrap;html=1;" vertex="1" parent="Z_lSCng-xkJckpSG0J26-86">
          <mxGeometry x="170" width="70" height="53" as="geometry">
            <mxRectangle width="70" height="53" as="alternateBounds" />
          </mxGeometry>
        </mxCell>
        <mxCell id="Z_lSCng-xkJckpSG0J26-89" value="2" style="connectable=0;recursiveResize=0;strokeColor=inherit;fillColor=none;align=center;whiteSpace=wrap;html=1;" vertex="1" parent="Z_lSCng-xkJckpSG0J26-86">
          <mxGeometry x="240" width="120" height="53" as="geometry">
            <mxRectangle width="120" height="53" as="alternateBounds" />
          </mxGeometry>
        </mxCell>
        <mxCell id="Z_lSCng-xkJckpSG0J26-90" value="- - -" style="connectable=0;recursiveResize=0;strokeColor=inherit;fillColor=none;align=center;whiteSpace=wrap;html=1;" vertex="1" parent="Z_lSCng-xkJckpSG0J26-86">
          <mxGeometry x="360" width="100" height="53" as="geometry">
            <mxRectangle width="100" height="53" as="alternateBounds" />
          </mxGeometry>
        </mxCell>
        <mxCell id="Z_lSCng-xkJckpSG0J26-91" value="ФИО" style="connectable=0;recursiveResize=0;strokeColor=inherit;fillColor=none;align=center;whiteSpace=wrap;html=1;" vertex="1" parent="Z_lSCng-xkJckpSG0J26-86">
          <mxGeometry x="460" width="90" height="53" as="geometry">
            <mxRectangle width="90" height="53" as="alternateBounds" />
          </mxGeometry>
        </mxCell>
        <mxCell id="Z_lSCng-xkJckpSG0J26-92" value="Выполнена" style="connectable=0;recursiveResize=0;strokeColor=inherit;fillColor=none;align=center;whiteSpace=wrap;html=1;" vertex="1" parent="Z_lSCng-xkJckpSG0J26-86">
          <mxGeometry x="550" width="100" height="53" as="geometry">
            <mxRectangle width="100" height="53" as="alternateBounds" />
          </mxGeometry>
        </mxCell>
        <mxCell id="Z_lSCng-xkJckpSG0J26-93" style="shape=tableRow;horizontal=0;startSize=0;swimlaneHead=0;swimlaneBody=0;top=0;left=0;bottom=0;right=0;dropTarget=0;collapsible=0;recursiveResize=0;expand=0;fontStyle=0;fillColor=none;strokeColor=inherit;" vertex="1" parent="Z_lSCng-xkJckpSG0J26-78">
          <mxGeometry y="107" width="650" height="53" as="geometry" />
        </mxCell>
        <mxCell id="Z_lSCng-xkJckpSG0J26-94" value="&lt;span style=&quot;text-align: left;&quot;&gt;Составить протокол принятия 2-го этапа работ&lt;/span&gt;" style="connectable=0;recursiveResize=0;strokeColor=inherit;fillColor=none;align=center;whiteSpace=wrap;html=1;" vertex="1" parent="Z_lSCng-xkJckpSG0J26-93">
          <mxGeometry width="170" height="53" as="geometry">
            <mxRectangle width="170" height="53" as="alternateBounds" />
          </mxGeometry>
        </mxCell>
        <mxCell id="Z_lSCng-xkJckpSG0J26-95" value="13.01.22" style="connectable=0;recursiveResize=0;strokeColor=inherit;fillColor=none;align=center;whiteSpace=wrap;html=1;" vertex="1" parent="Z_lSCng-xkJckpSG0J26-93">
          <mxGeometry x="170" width="70" height="53" as="geometry">
            <mxRectangle width="70" height="53" as="alternateBounds" />
          </mxGeometry>
        </mxCell>
        <mxCell id="Z_lSCng-xkJckpSG0J26-96" value="3" style="connectable=0;recursiveResize=0;strokeColor=inherit;fillColor=none;align=center;whiteSpace=wrap;html=1;" vertex="1" parent="Z_lSCng-xkJckpSG0J26-93">
          <mxGeometry x="240" width="120" height="53" as="geometry">
            <mxRectangle width="120" height="53" as="alternateBounds" />
          </mxGeometry>
        </mxCell>
        <mxCell id="Z_lSCng-xkJckpSG0J26-97" value="18.01.22" style="connectable=0;recursiveResize=0;strokeColor=inherit;fillColor=none;align=center;whiteSpace=wrap;html=1;" vertex="1" parent="Z_lSCng-xkJckpSG0J26-93">
          <mxGeometry x="360" width="100" height="53" as="geometry">
            <mxRectangle width="100" height="53" as="alternateBounds" />
          </mxGeometry>
        </mxCell>
        <mxCell id="Z_lSCng-xkJckpSG0J26-98" value="ФИО" style="connectable=0;recursiveResize=0;strokeColor=inherit;fillColor=none;align=center;whiteSpace=wrap;html=1;" vertex="1" parent="Z_lSCng-xkJckpSG0J26-93">
          <mxGeometry x="460" width="90" height="53" as="geometry">
            <mxRectangle width="90" height="53" as="alternateBounds" />
          </mxGeometry>
        </mxCell>
        <mxCell id="Z_lSCng-xkJckpSG0J26-99" value="В работе" style="connectable=0;recursiveResize=0;strokeColor=inherit;fillColor=none;align=center;whiteSpace=wrap;html=1;" vertex="1" parent="Z_lSCng-xkJckpSG0J26-93">
          <mxGeometry x="550" width="100" height="53" as="geometry">
            <mxRectangle width="100" height="53" as="alternateBounds" />
          </mxGeometry>
        </mxCell>
        <mxCell id="Z_lSCng-xkJckpSG0J26-100" style="shape=tableRow;horizontal=0;startSize=0;swimlaneHead=0;swimlaneBody=0;top=0;left=0;bottom=0;right=0;dropTarget=0;collapsible=0;recursiveResize=0;expand=0;fontStyle=0;fillColor=none;strokeColor=inherit;" vertex="1" parent="Z_lSCng-xkJckpSG0J26-78">
          <mxGeometry y="160" width="650" height="53" as="geometry" />
        </mxCell>
        <mxCell id="Z_lSCng-xkJckpSG0J26-101" value="&lt;span style=&quot;text-align: left;&quot;&gt;Отправить документы на проверку куратору&lt;/span&gt;" style="connectable=0;recursiveResize=0;strokeColor=inherit;fillColor=none;align=center;whiteSpace=wrap;html=1;" vertex="1" parent="Z_lSCng-xkJckpSG0J26-100">
          <mxGeometry width="170" height="53" as="geometry">
            <mxRectangle width="170" height="53" as="alternateBounds" />
          </mxGeometry>
        </mxCell>
        <mxCell id="Z_lSCng-xkJckpSG0J26-102" value="19.01.22" style="connectable=0;recursiveResize=0;strokeColor=inherit;fillColor=none;align=center;whiteSpace=wrap;html=1;" vertex="1" parent="Z_lSCng-xkJckpSG0J26-100">
          <mxGeometry x="170" width="70" height="53" as="geometry">
            <mxRectangle width="70" height="53" as="alternateBounds" />
          </mxGeometry>
        </mxCell>
        <mxCell id="Z_lSCng-xkJckpSG0J26-103" value="1" style="connectable=0;recursiveResize=0;strokeColor=inherit;fillColor=none;align=center;whiteSpace=wrap;html=1;" vertex="1" parent="Z_lSCng-xkJckpSG0J26-100">
          <mxGeometry x="240" width="120" height="53" as="geometry">
            <mxRectangle width="120" height="53" as="alternateBounds" />
          </mxGeometry>
        </mxCell>
        <mxCell id="Z_lSCng-xkJckpSG0J26-104" value="14:00 19.01.22" style="connectable=0;recursiveResize=0;strokeColor=inherit;fillColor=none;align=center;whiteSpace=wrap;html=1;" vertex="1" parent="Z_lSCng-xkJckpSG0J26-100">
          <mxGeometry x="360" width="100" height="53" as="geometry">
            <mxRectangle width="100" height="53" as="alternateBounds" />
          </mxGeometry>
        </mxCell>
        <mxCell id="Z_lSCng-xkJckpSG0J26-105" value="ФИО" style="connectable=0;recursiveResize=0;strokeColor=inherit;fillColor=none;align=center;whiteSpace=wrap;html=1;" vertex="1" parent="Z_lSCng-xkJckpSG0J26-100">
          <mxGeometry x="460" width="90" height="53" as="geometry">
            <mxRectangle width="90" height="53" as="alternateBounds" />
          </mxGeometry>
        </mxCell>
        <mxCell id="Z_lSCng-xkJckpSG0J26-106" value="В ожидании" style="connectable=0;recursiveResize=0;strokeColor=inherit;fillColor=none;align=center;whiteSpace=wrap;html=1;" vertex="1" parent="Z_lSCng-xkJckpSG0J26-100">
          <mxGeometry x="550" width="100" height="53" as="geometry">
            <mxRectangle width="100" height="53" as="alternateBounds" />
          </mxGeometry>
        </mxCell>
        <mxCell id="Z_lSCng-xkJckpSG0J26-107" style="shape=tableRow;horizontal=0;startSize=0;swimlaneHead=0;swimlaneBody=0;top=0;left=0;bottom=0;right=0;dropTarget=0;collapsible=0;recursiveResize=0;expand=0;fontStyle=0;fillColor=none;strokeColor=inherit;" vertex="1" parent="Z_lSCng-xkJckpSG0J26-78">
          <mxGeometry y="213" width="650" height="53" as="geometry" />
        </mxCell>
        <mxCell id="Z_lSCng-xkJckpSG0J26-108" value="Подготовить техническую документацию для внутреннего аудита" style="connectable=0;recursiveResize=0;strokeColor=inherit;fillColor=none;align=center;whiteSpace=wrap;html=1;" vertex="1" parent="Z_lSCng-xkJckpSG0J26-107">
          <mxGeometry width="170" height="53" as="geometry">
            <mxRectangle width="170" height="53" as="alternateBounds" />
          </mxGeometry>
        </mxCell>
        <mxCell id="Z_lSCng-xkJckpSG0J26-109" value="20.01.22" style="connectable=0;recursiveResize=0;strokeColor=inherit;fillColor=none;align=center;whiteSpace=wrap;html=1;" vertex="1" parent="Z_lSCng-xkJckpSG0J26-107">
          <mxGeometry x="170" width="70" height="53" as="geometry">
            <mxRectangle width="70" height="53" as="alternateBounds" />
          </mxGeometry>
        </mxCell>
        <mxCell id="Z_lSCng-xkJckpSG0J26-110" value="8" style="connectable=0;recursiveResize=0;strokeColor=inherit;fillColor=none;align=center;whiteSpace=wrap;html=1;" vertex="1" parent="Z_lSCng-xkJckpSG0J26-107">
          <mxGeometry x="240" width="120" height="53" as="geometry">
            <mxRectangle width="120" height="53" as="alternateBounds" />
          </mxGeometry>
        </mxCell>
        <mxCell id="Z_lSCng-xkJckpSG0J26-111" value="24.01.22&lt;br&gt;26.01.22&lt;br&gt;13:00 31.01.22" style="connectable=0;recursiveResize=0;strokeColor=inherit;fillColor=none;align=center;whiteSpace=wrap;html=1;" vertex="1" parent="Z_lSCng-xkJckpSG0J26-107">
          <mxGeometry x="360" width="100" height="53" as="geometry">
            <mxRectangle width="100" height="53" as="alternateBounds" />
          </mxGeometry>
        </mxCell>
        <mxCell id="Z_lSCng-xkJckpSG0J26-112" value="ФИО" style="connectable=0;recursiveResize=0;strokeColor=inherit;fillColor=none;align=center;whiteSpace=wrap;html=1;" vertex="1" parent="Z_lSCng-xkJckpSG0J26-107">
          <mxGeometry x="460" width="90" height="53" as="geometry">
            <mxRectangle width="90" height="53" as="alternateBounds" />
          </mxGeometry>
        </mxCell>
        <mxCell id="Z_lSCng-xkJckpSG0J26-113" value="В ожидании" style="connectable=0;recursiveResize=0;strokeColor=inherit;fillColor=none;align=center;whiteSpace=wrap;html=1;" vertex="1" parent="Z_lSCng-xkJckpSG0J26-107">
          <mxGeometry x="550" width="100" height="53" as="geometry">
            <mxRectangle width="100" height="53" as="alternateBounds" />
          </mxGeometry>
        </mxCell>
        <mxCell id="Z_lSCng-xkJckpSG0J26-114" style="shape=tableRow;horizontal=0;startSize=0;swimlaneHead=0;swimlaneBody=0;top=0;left=0;bottom=0;right=0;dropTarget=0;collapsible=0;recursiveResize=0;expand=0;fontStyle=0;fillColor=none;strokeColor=inherit;" vertex="1" parent="Z_lSCng-xkJckpSG0J26-78">
          <mxGeometry y="266" width="650" height="53" as="geometry" />
        </mxCell>
        <mxCell id="Z_lSCng-xkJckpSG0J26-115" value="+ (Добавить задачу)" style="connectable=0;recursiveResize=0;strokeColor=inherit;fillColor=none;align=left;whiteSpace=wrap;html=1;rowspan=1;colspan=6;" vertex="1" parent="Z_lSCng-xkJckpSG0J26-114">
          <mxGeometry width="650" height="53" as="geometry">
            <mxRectangle width="170" height="53" as="alternateBounds" />
          </mxGeometry>
        </mxCell>
        <mxCell id="Z_lSCng-xkJckpSG0J26-116" style="connectable=0;recursiveResize=0;strokeColor=inherit;fillColor=none;align=center;whiteSpace=wrap;html=1;" vertex="1" visible="0" parent="Z_lSCng-xkJckpSG0J26-114">
          <mxGeometry x="170" width="70" height="53" as="geometry">
            <mxRectangle width="70" height="53" as="alternateBounds" />
          </mxGeometry>
        </mxCell>
        <mxCell id="Z_lSCng-xkJckpSG0J26-117" style="connectable=0;recursiveResize=0;strokeColor=inherit;fillColor=none;align=center;whiteSpace=wrap;html=1;" vertex="1" visible="0" parent="Z_lSCng-xkJckpSG0J26-114">
          <mxGeometry x="240" width="120" height="53" as="geometry">
            <mxRectangle width="120" height="53" as="alternateBounds" />
          </mxGeometry>
        </mxCell>
        <mxCell id="Z_lSCng-xkJckpSG0J26-118" style="connectable=0;recursiveResize=0;strokeColor=inherit;fillColor=none;align=center;whiteSpace=wrap;html=1;" vertex="1" visible="0" parent="Z_lSCng-xkJckpSG0J26-114">
          <mxGeometry x="360" width="100" height="53" as="geometry">
            <mxRectangle width="100" height="53" as="alternateBounds" />
          </mxGeometry>
        </mxCell>
        <mxCell id="Z_lSCng-xkJckpSG0J26-119" style="connectable=0;recursiveResize=0;strokeColor=inherit;fillColor=none;align=center;whiteSpace=wrap;html=1;" vertex="1" visible="0" parent="Z_lSCng-xkJckpSG0J26-114">
          <mxGeometry x="460" width="90" height="53" as="geometry">
            <mxRectangle width="90" height="53" as="alternateBounds" />
          </mxGeometry>
        </mxCell>
        <mxCell id="Z_lSCng-xkJckpSG0J26-120" style="connectable=0;recursiveResize=0;strokeColor=inherit;fillColor=none;align=center;whiteSpace=wrap;html=1;" vertex="1" visible="0" parent="Z_lSCng-xkJckpSG0J26-114">
          <mxGeometry x="550" width="100" height="53" as="geometry">
            <mxRectangle width="100" height="53" as="alternateBounds" />
          </mxGeometry>
        </mxCell>
        <mxCell id="Z_lSCng-xkJckpSG0J26-121" value="План работ" style="swimlane;whiteSpace=wrap;html=1;" vertex="1" parent="1">
          <mxGeometry x="3000" y="240" width="200" height="280" as="geometry" />
        </mxCell>
        <mxCell id="Z_lSCng-xkJckpSG0J26-122" value="Начало работ" style="whiteSpace=wrap;html=1;" vertex="1" parent="Z_lSCng-xkJckpSG0J26-121">
          <mxGeometry x="10" y="41" width="70" height="40" as="geometry" />
        </mxCell>
        <mxCell id="Z_lSCng-xkJckpSG0J26-123" value="Задача 1" style="whiteSpace=wrap;html=1;" vertex="1" parent="Z_lSCng-xkJckpSG0J26-121">
          <mxGeometry x="120" y="41" width="70" height="40" as="geometry" />
        </mxCell>
        <mxCell id="Z_lSCng-xkJckpSG0J26-124" value="Задача 2" style="whiteSpace=wrap;html=1;" vertex="1" parent="Z_lSCng-xkJckpSG0J26-121">
          <mxGeometry x="10" y="120" width="70" height="40" as="geometry" />
        </mxCell>
        <mxCell id="Z_lSCng-xkJckpSG0J26-125" value="Задача 3" style="whiteSpace=wrap;html=1;" vertex="1" parent="Z_lSCng-xkJckpSG0J26-121">
          <mxGeometry x="120" y="120" width="70" height="40" as="geometry" />
        </mxCell>
        <mxCell id="Z_lSCng-xkJckpSG0J26-126" value="" style="endArrow=classic;html=1;rounded=0;exitX=1;exitY=0.5;exitDx=0;exitDy=0;entryX=0;entryY=0.5;entryDx=0;entryDy=0;" edge="1" parent="Z_lSCng-xkJckpSG0J26-121" source="Z_lSCng-xkJckpSG0J26-122" target="Z_lSCng-xkJckpSG0J26-123">
          <mxGeometry width="50" height="50" relative="1" as="geometry">
            <mxPoint x="100" y="350" as="sourcePoint" />
            <mxPoint x="150" y="300" as="targetPoint" />
            <Array as="points" />
          </mxGeometry>
        </mxCell>
        <mxCell id="Z_lSCng-xkJckpSG0J26-127" value="" style="endArrow=classic;html=1;rounded=0;exitX=0.25;exitY=1;exitDx=0;exitDy=0;entryX=0.75;entryY=0;entryDx=0;entryDy=0;" edge="1" parent="Z_lSCng-xkJckpSG0J26-121" source="Z_lSCng-xkJckpSG0J26-123" target="Z_lSCng-xkJckpSG0J26-124">
          <mxGeometry width="50" height="50" relative="1" as="geometry">
            <mxPoint x="100" y="350" as="sourcePoint" />
            <mxPoint x="150" y="300" as="targetPoint" />
          </mxGeometry>
        </mxCell>
        <mxCell id="Z_lSCng-xkJckpSG0J26-128" value="" style="endArrow=classic;html=1;rounded=0;exitX=1;exitY=0.5;exitDx=0;exitDy=0;entryX=0;entryY=0.5;entryDx=0;entryDy=0;" edge="1" parent="Z_lSCng-xkJckpSG0J26-121" source="Z_lSCng-xkJckpSG0J26-124" target="Z_lSCng-xkJckpSG0J26-125">
          <mxGeometry width="50" height="50" relative="1" as="geometry">
            <mxPoint x="100" y="350" as="sourcePoint" />
            <mxPoint x="150" y="300" as="targetPoint" />
          </mxGeometry>
        </mxCell>
        <mxCell id="Z_lSCng-xkJckpSG0J26-129" value="Конец" style="whiteSpace=wrap;html=1;" vertex="1" parent="Z_lSCng-xkJckpSG0J26-121">
          <mxGeometry x="115" y="200" width="75" height="40" as="geometry" />
        </mxCell>
        <mxCell id="Z_lSCng-xkJckpSG0J26-130" value="Подведение итогов" style="whiteSpace=wrap;html=1;" vertex="1" parent="1">
          <mxGeometry x="3010" y="440" width="70" height="40" as="geometry" />
        </mxCell>
        <mxCell id="Z_lSCng-xkJckpSG0J26-131" value="" style="endArrow=classic;html=1;rounded=0;exitX=0.25;exitY=1;exitDx=0;exitDy=0;entryX=0.75;entryY=0;entryDx=0;entryDy=0;" edge="1" parent="1" source="Z_lSCng-xkJckpSG0J26-125" target="Z_lSCng-xkJckpSG0J26-130">
          <mxGeometry width="50" height="50" relative="1" as="geometry">
            <mxPoint x="2820" y="660" as="sourcePoint" />
            <mxPoint x="2870" y="610" as="targetPoint" />
          </mxGeometry>
        </mxCell>
        <mxCell id="Z_lSCng-xkJckpSG0J26-132" value="" style="endArrow=classic;html=1;rounded=0;exitX=1;exitY=0.5;exitDx=0;exitDy=0;entryX=0;entryY=0.5;entryDx=0;entryDy=0;" edge="1" parent="1" source="Z_lSCng-xkJckpSG0J26-130" target="Z_lSCng-xkJckpSG0J26-129">
          <mxGeometry width="50" height="50" relative="1" as="geometry">
            <mxPoint x="2820" y="660" as="sourcePoint" />
            <mxPoint x="2870" y="610" as="targetPoint" />
          </mxGeometry>
        </mxCell>
        <mxCell id="Z_lSCng-xkJckpSG0J26-133" value="План работ на январь 2022" style="rounded=0;whiteSpace=wrap;html=1;" vertex="1" parent="1">
          <mxGeometry x="1800" y="169" width="230" height="40" as="geometry" />
        </mxCell>
        <mxCell id="Z_lSCng-xkJckpSG0J26-134" value="Файлы" style="shape=note;whiteSpace=wrap;html=1;backgroundOutline=1;darkOpacity=0.05;" vertex="1" parent="1">
          <mxGeometry x="2570" y="169" width="110" height="40" as="geometry" />
        </mxCell>
        <mxCell id="Z_lSCng-xkJckpSG0J26-135" value="" style="verticalLabelPosition=bottom;verticalAlign=top;html=1;shape=mxgraph.basic.layered_rect;dx=10;outlineConnect=0;whiteSpace=wrap;" vertex="1" parent="1">
          <mxGeometry x="1940" y="280" width="90" height="51" as="geometry" />
        </mxCell>
        <mxCell id="Z_lSCng-xkJckpSG0J26-136" value="Список задач" style="text;html=1;align=center;verticalAlign=middle;whiteSpace=wrap;rounded=0;" vertex="1" parent="1">
          <mxGeometry x="1950" y="280" width="60" height="40" as="geometry" />
        </mxCell>
        <mxCell id="Z_lSCng-xkJckpSG0J26-137" value="Настройки таблиц и графиков" style="label;whiteSpace=wrap;html=1;image=img/clipart/Gear_128x128.png" vertex="1" parent="1">
          <mxGeometry x="1610" y="169" width="180" height="40" as="geometry" />
        </mxCell>
        <mxCell id="Z_lSCng-xkJckpSG0J26-138" value="Настройки" style="label;whiteSpace=wrap;html=1;image=img/clipart/Gear_128x128.png" vertex="1" parent="1">
          <mxGeometry x="1480" y="170" width="120" height="40" as="geometry" />
        </mxCell>
        <mxCell id="Z_lSCng-xkJckpSG0J26-139" value="Создать график" style="html=1;whiteSpace=wrap;container=1;recursiveResize=0;collapsible=0;" vertex="1" parent="1">
          <mxGeometry x="1940" y="221" width="90" height="40" as="geometry" />
        </mxCell>
        <mxCell id="Z_lSCng-xkJckpSG0J26-140" value="" style="triangle;html=1;whiteSpace=wrap;" vertex="1" parent="Z_lSCng-xkJckpSG0J26-139">
          <mxGeometry x="7.5" y="12.5" width="15" height="15" as="geometry" />
        </mxCell>
        <mxCell id="Z_lSCng-xkJckpSG0J26-141" value="Списки, таблицы, заметки, тексты, задачи не вошедшие в &quot;список и перечень задач&quot;" style="rounded=1;whiteSpace=wrap;html=1;" vertex="1" parent="1">
          <mxGeometry x="200" y="20" width="150" height="70" as="geometry" />
        </mxCell>
        <mxCell id="Z_lSCng-xkJckpSG0J26-142" value="Файлы" style="shape=note;whiteSpace=wrap;html=1;backgroundOutline=1;darkOpacity=0.05;" vertex="1" parent="1">
          <mxGeometry x="1360" y="170" width="110" height="40" as="geometry" />
        </mxCell>
        <mxCell id="Z_lSCng-xkJckpSG0J26-143" value="Календарь" style="shape=table;startSize=30;container=1;collapsible=0;childLayout=tableLayout;strokeColor=default;fontSize=16;" vertex="1" parent="1">
          <mxGeometry x="1940" y="349.5" width="90" height="61" as="geometry" />
        </mxCell>
        <mxCell id="Z_lSCng-xkJckpSG0J26-144" value="" style="shape=tableRow;horizontal=0;startSize=0;swimlaneHead=0;swimlaneBody=0;strokeColor=inherit;top=0;left=0;bottom=0;right=0;collapsible=0;dropTarget=0;fillColor=none;points=[[0,0.5],[1,0.5]];portConstraint=eastwest;fontSize=16;" vertex="1" parent="Z_lSCng-xkJckpSG0J26-143">
          <mxGeometry y="30" width="90" height="11" as="geometry" />
        </mxCell>
        <mxCell id="Z_lSCng-xkJckpSG0J26-145" value="" style="shape=partialRectangle;html=1;whiteSpace=wrap;connectable=0;strokeColor=inherit;overflow=hidden;fillColor=none;top=0;left=0;bottom=0;right=0;pointerEvents=1;fontSize=16;" vertex="1" parent="Z_lSCng-xkJckpSG0J26-144">
          <mxGeometry width="30" height="11" as="geometry">
            <mxRectangle width="30" height="11" as="alternateBounds" />
          </mxGeometry>
        </mxCell>
        <mxCell id="Z_lSCng-xkJckpSG0J26-146" value="" style="shape=partialRectangle;html=1;whiteSpace=wrap;connectable=0;strokeColor=inherit;overflow=hidden;fillColor=none;top=0;left=0;bottom=0;right=0;pointerEvents=1;fontSize=16;" vertex="1" parent="Z_lSCng-xkJckpSG0J26-144">
          <mxGeometry x="30" width="30" height="11" as="geometry">
            <mxRectangle width="30" height="11" as="alternateBounds" />
          </mxGeometry>
        </mxCell>
        <mxCell id="Z_lSCng-xkJckpSG0J26-147" value="" style="shape=partialRectangle;html=1;whiteSpace=wrap;connectable=0;strokeColor=inherit;overflow=hidden;fillColor=none;top=0;left=0;bottom=0;right=0;pointerEvents=1;fontSize=16;" vertex="1" parent="Z_lSCng-xkJckpSG0J26-144">
          <mxGeometry x="60" width="30" height="11" as="geometry">
            <mxRectangle width="30" height="11" as="alternateBounds" />
          </mxGeometry>
        </mxCell>
        <mxCell id="Z_lSCng-xkJckpSG0J26-148" value="" style="shape=tableRow;horizontal=0;startSize=0;swimlaneHead=0;swimlaneBody=0;strokeColor=inherit;top=0;left=0;bottom=0;right=0;collapsible=0;dropTarget=0;fillColor=none;points=[[0,0.5],[1,0.5]];portConstraint=eastwest;fontSize=16;" vertex="1" parent="Z_lSCng-xkJckpSG0J26-143">
          <mxGeometry y="41" width="90" height="9" as="geometry" />
        </mxCell>
        <mxCell id="Z_lSCng-xkJckpSG0J26-149" value="" style="shape=partialRectangle;html=1;whiteSpace=wrap;connectable=0;strokeColor=inherit;overflow=hidden;fillColor=none;top=0;left=0;bottom=0;right=0;pointerEvents=1;fontSize=16;" vertex="1" parent="Z_lSCng-xkJckpSG0J26-148">
          <mxGeometry width="30" height="9" as="geometry">
            <mxRectangle width="30" height="9" as="alternateBounds" />
          </mxGeometry>
        </mxCell>
        <mxCell id="Z_lSCng-xkJckpSG0J26-150" value="" style="shape=partialRectangle;html=1;whiteSpace=wrap;connectable=0;strokeColor=inherit;overflow=hidden;fillColor=none;top=0;left=0;bottom=0;right=0;pointerEvents=1;fontSize=16;" vertex="1" parent="Z_lSCng-xkJckpSG0J26-148">
          <mxGeometry x="30" width="30" height="9" as="geometry">
            <mxRectangle width="30" height="9" as="alternateBounds" />
          </mxGeometry>
        </mxCell>
        <mxCell id="Z_lSCng-xkJckpSG0J26-151" value="" style="shape=partialRectangle;html=1;whiteSpace=wrap;connectable=0;strokeColor=inherit;overflow=hidden;fillColor=none;top=0;left=0;bottom=0;right=0;pointerEvents=1;fontSize=16;" vertex="1" parent="Z_lSCng-xkJckpSG0J26-148">
          <mxGeometry x="60" width="30" height="9" as="geometry">
            <mxRectangle width="30" height="9" as="alternateBounds" />
          </mxGeometry>
        </mxCell>
        <mxCell id="Z_lSCng-xkJckpSG0J26-152" value="" style="shape=tableRow;horizontal=0;startSize=0;swimlaneHead=0;swimlaneBody=0;strokeColor=inherit;top=0;left=0;bottom=0;right=0;collapsible=0;dropTarget=0;fillColor=none;points=[[0,0.5],[1,0.5]];portConstraint=eastwest;fontSize=16;" vertex="1" parent="Z_lSCng-xkJckpSG0J26-143">
          <mxGeometry y="50" width="90" height="11" as="geometry" />
        </mxCell>
        <mxCell id="Z_lSCng-xkJckpSG0J26-153" value="" style="shape=partialRectangle;html=1;whiteSpace=wrap;connectable=0;strokeColor=inherit;overflow=hidden;fillColor=none;top=0;left=0;bottom=0;right=0;pointerEvents=1;fontSize=16;" vertex="1" parent="Z_lSCng-xkJckpSG0J26-152">
          <mxGeometry width="30" height="11" as="geometry">
            <mxRectangle width="30" height="11" as="alternateBounds" />
          </mxGeometry>
        </mxCell>
        <mxCell id="Z_lSCng-xkJckpSG0J26-154" value="" style="shape=partialRectangle;html=1;whiteSpace=wrap;connectable=0;strokeColor=inherit;overflow=hidden;fillColor=none;top=0;left=0;bottom=0;right=0;pointerEvents=1;fontSize=16;" vertex="1" parent="Z_lSCng-xkJckpSG0J26-152">
          <mxGeometry x="30" width="30" height="11" as="geometry">
            <mxRectangle width="30" height="11" as="alternateBounds" />
          </mxGeometry>
        </mxCell>
        <mxCell id="Z_lSCng-xkJckpSG0J26-155" value="" style="shape=partialRectangle;html=1;whiteSpace=wrap;connectable=0;strokeColor=inherit;overflow=hidden;fillColor=none;top=0;left=0;bottom=0;right=0;pointerEvents=1;fontSize=16;" vertex="1" parent="Z_lSCng-xkJckpSG0J26-152">
          <mxGeometry x="60" width="30" height="11" as="geometry">
            <mxRectangle width="30" height="11" as="alternateBounds" />
          </mxGeometry>
        </mxCell>
        <mxCell id="Z_lSCng-xkJckpSG0J26-156" value="Настройки" style="label;whiteSpace=wrap;html=1;image=img/clipart/Gear_128x128.png" vertex="1" parent="1">
          <mxGeometry x="270" y="173" width="120" height="38" as="geometry" />
        </mxCell>
        <mxCell id="Z_lSCng-xkJckpSG0J26-157" value="Файл" style="shape=note;whiteSpace=wrap;html=1;backgroundOutline=1;darkOpacity=0.05;" vertex="1" parent="1">
          <mxGeometry x="50" y="172" width="100" height="38" as="geometry" />
        </mxCell>
        <mxCell id="Z_lSCng-xkJckpSG0J26-158" value="Файл" style="shape=note;whiteSpace=wrap;html=1;backgroundOutline=1;darkOpacity=0.05;" vertex="1" parent="1">
          <mxGeometry x="1250" y="170" width="100" height="39" as="geometry" />
        </mxCell>
        <mxCell id="Z_lSCng-xkJckpSG0J26-159" value="Файл" style="shape=note;whiteSpace=wrap;html=1;backgroundOutline=1;darkOpacity=0.05;" vertex="1" parent="1">
          <mxGeometry x="2450" y="169" width="110" height="39" as="geometry" />
        </mxCell>
        <mxCell id="Z_lSCng-xkJckpSG0J26-160" value="Файлы" style="shape=note;whiteSpace=wrap;html=1;backgroundOutline=1;darkOpacity=0.05;" vertex="1" parent="1">
          <mxGeometry x="160" y="173" width="100" height="37" as="geometry" />
        </mxCell>
        <mxCell id="Z_lSCng-xkJckpSG0J26-161" value="" style="endArrow=none;html=1;rounded=0;fillColor=#f8cecc;strokeColor=#b85450;strokeWidth=5;" edge="1" parent="1">
          <mxGeometry width="50" height="50" relative="1" as="geometry">
            <mxPoint x="1750" y="212" as="sourcePoint" />
            <mxPoint x="1750" y="212" as="targetPoint" />
            <Array as="points">
              <mxPoint x="1750" y="292" />
              <mxPoint x="1630" y="292" />
              <mxPoint x="1630" y="212" />
            </Array>
          </mxGeometry>
        </mxCell>
        <mxCell id="Z_lSCng-xkJckpSG0J26-162" value="Стандартные функции, такие как: создать, открыть, сохранить как и т.д." style="rounded=1;whiteSpace=wrap;html=1;" vertex="1" parent="1">
          <mxGeometry x="40" y="20" width="120" height="60" as="geometry" />
        </mxCell>
        <mxCell id="Z_lSCng-xkJckpSG0J26-163" value="" style="endArrow=classic;html=1;rounded=0;" edge="1" parent="1">
          <mxGeometry width="50" height="50" relative="1" as="geometry">
            <mxPoint x="100" y="90" as="sourcePoint" />
            <mxPoint x="100" y="150" as="targetPoint" />
          </mxGeometry>
        </mxCell>
        <mxCell id="Z_lSCng-xkJckpSG0J26-164" value="" style="endArrow=classic;html=1;rounded=0;" edge="1" parent="1">
          <mxGeometry width="50" height="50" relative="1" as="geometry">
            <mxPoint x="220" y="100" as="sourcePoint" />
            <mxPoint x="220" y="150" as="targetPoint" />
          </mxGeometry>
        </mxCell>
        <mxCell id="Z_lSCng-xkJckpSG0J26-165" value="" style="endArrow=classic;html=1;rounded=0;fillColor=#f8cecc;strokeColor=#000000;strokeWidth=1;" edge="1" parent="1">
          <mxGeometry width="50" height="50" relative="1" as="geometry">
            <mxPoint x="480" y="120" as="sourcePoint" />
            <mxPoint x="320" y="150" as="targetPoint" />
            <Array as="points">
              <mxPoint x="320" y="120" />
            </Array>
          </mxGeometry>
        </mxCell>
        <mxCell id="Z_lSCng-xkJckpSG0J26-166" value="" style="endArrow=none;html=1;rounded=0;" edge="1" parent="1">
          <mxGeometry width="50" height="50" relative="1" as="geometry">
            <mxPoint x="480" y="120" as="sourcePoint" />
            <mxPoint x="480" y="100" as="targetPoint" />
          </mxGeometry>
        </mxCell>
        <mxCell id="Z_lSCng-xkJckpSG0J26-167" value="" style="childLayout=tableLayout;recursiveResize=0;shadow=0;fillColor=none;" vertex="1" parent="1">
          <mxGeometry x="50" y="240" width="770" height="295" as="geometry" />
        </mxCell>
        <mxCell id="Z_lSCng-xkJckpSG0J26-168" value="" style="shape=tableRow;horizontal=0;startSize=0;swimlaneHead=0;swimlaneBody=0;top=0;left=0;bottom=0;right=0;dropTarget=0;collapsible=0;recursiveResize=0;expand=0;fontStyle=0;fillColor=none;strokeColor=inherit;" vertex="1" parent="Z_lSCng-xkJckpSG0J26-167">
          <mxGeometry width="770" height="37" as="geometry" />
        </mxCell>
        <mxCell id="Z_lSCng-xkJckpSG0J26-169" value="Функции и фильтры" style="connectable=0;recursiveResize=0;strokeColor=inherit;fillColor=none;align=center;whiteSpace=wrap;html=1;rowspan=1;colspan=2;" vertex="1" parent="Z_lSCng-xkJckpSG0J26-168">
          <mxGeometry width="770" height="37" as="geometry">
            <mxRectangle width="640" height="37" as="alternateBounds" />
          </mxGeometry>
        </mxCell>
        <mxCell id="Z_lSCng-xkJckpSG0J26-170" value="" style="connectable=0;recursiveResize=0;strokeColor=inherit;fillColor=none;align=center;whiteSpace=wrap;html=1;" vertex="1" visible="0" parent="Z_lSCng-xkJckpSG0J26-168">
          <mxGeometry x="640" width="130" height="37" as="geometry">
            <mxRectangle width="130" height="37" as="alternateBounds" />
          </mxGeometry>
        </mxCell>
        <mxCell id="Z_lSCng-xkJckpSG0J26-171" style="shape=tableRow;horizontal=0;startSize=0;swimlaneHead=0;swimlaneBody=0;top=0;left=0;bottom=0;right=0;dropTarget=0;collapsible=0;recursiveResize=0;expand=0;fontStyle=0;fillColor=none;strokeColor=inherit;" vertex="1" parent="Z_lSCng-xkJckpSG0J26-167">
          <mxGeometry y="37" width="770" height="36" as="geometry" />
        </mxCell>
        <mxCell id="Z_lSCng-xkJckpSG0J26-172" value="Сортировка по времени создания" style="connectable=0;recursiveResize=0;strokeColor=inherit;fillColor=none;align=center;whiteSpace=wrap;html=1;" vertex="1" parent="Z_lSCng-xkJckpSG0J26-171">
          <mxGeometry width="640" height="36" as="geometry">
            <mxRectangle width="640" height="36" as="alternateBounds" />
          </mxGeometry>
        </mxCell>
        <mxCell id="Z_lSCng-xkJckpSG0J26-173" value="Вкл./Выкл." style="connectable=0;recursiveResize=0;strokeColor=inherit;fillColor=none;align=center;whiteSpace=wrap;html=1;" vertex="1" parent="Z_lSCng-xkJckpSG0J26-171">
          <mxGeometry x="640" width="130" height="36" as="geometry">
            <mxRectangle width="130" height="36" as="alternateBounds" />
          </mxGeometry>
        </mxCell>
        <mxCell id="Z_lSCng-xkJckpSG0J26-174" style="shape=tableRow;horizontal=0;startSize=0;swimlaneHead=0;swimlaneBody=0;top=0;left=0;bottom=0;right=0;dropTarget=0;collapsible=0;recursiveResize=0;expand=0;fontStyle=0;fillColor=none;strokeColor=inherit;" vertex="1" parent="Z_lSCng-xkJckpSG0J26-167">
          <mxGeometry y="73" width="770" height="37" as="geometry" />
        </mxCell>
        <mxCell id="Z_lSCng-xkJckpSG0J26-175" value="Отображение на графики времени напоминания о статусе задачи" style="connectable=0;recursiveResize=0;strokeColor=inherit;fillColor=none;align=center;whiteSpace=wrap;html=1;" vertex="1" parent="Z_lSCng-xkJckpSG0J26-174">
          <mxGeometry width="640" height="37" as="geometry">
            <mxRectangle width="640" height="37" as="alternateBounds" />
          </mxGeometry>
        </mxCell>
        <mxCell id="Z_lSCng-xkJckpSG0J26-176" value="Вкл./Выкл." style="connectable=0;recursiveResize=0;strokeColor=inherit;fillColor=none;align=center;whiteSpace=wrap;html=1;" vertex="1" parent="Z_lSCng-xkJckpSG0J26-174">
          <mxGeometry x="640" width="130" height="37" as="geometry">
            <mxRectangle width="130" height="37" as="alternateBounds" />
          </mxGeometry>
        </mxCell>
        <mxCell id="Z_lSCng-xkJckpSG0J26-177" style="shape=tableRow;horizontal=0;startSize=0;swimlaneHead=0;swimlaneBody=0;top=0;left=0;bottom=0;right=0;dropTarget=0;collapsible=0;recursiveResize=0;expand=0;fontStyle=0;fillColor=none;strokeColor=inherit;" vertex="1" parent="Z_lSCng-xkJckpSG0J26-167">
          <mxGeometry y="110" width="770" height="37" as="geometry" />
        </mxCell>
        <mxCell id="Z_lSCng-xkJckpSG0J26-178" value="Отображение этапов работы на графике" style="connectable=0;recursiveResize=0;strokeColor=inherit;fillColor=none;align=center;whiteSpace=wrap;html=1;" vertex="1" parent="Z_lSCng-xkJckpSG0J26-177">
          <mxGeometry width="640" height="37" as="geometry">
            <mxRectangle width="640" height="37" as="alternateBounds" />
          </mxGeometry>
        </mxCell>
        <mxCell id="Z_lSCng-xkJckpSG0J26-179" value="Вкл./Выкл." style="connectable=0;recursiveResize=0;strokeColor=inherit;fillColor=none;align=center;whiteSpace=wrap;html=1;" vertex="1" parent="Z_lSCng-xkJckpSG0J26-177">
          <mxGeometry x="640" width="130" height="37" as="geometry">
            <mxRectangle width="130" height="37" as="alternateBounds" />
          </mxGeometry>
        </mxCell>
        <mxCell id="Z_lSCng-xkJckpSG0J26-180" style="shape=tableRow;horizontal=0;startSize=0;swimlaneHead=0;swimlaneBody=0;top=0;left=0;bottom=0;right=0;dropTarget=0;collapsible=0;recursiveResize=0;expand=0;fontStyle=0;fillColor=none;strokeColor=inherit;" vertex="1" parent="Z_lSCng-xkJckpSG0J26-167">
          <mxGeometry y="147" width="770" height="37" as="geometry" />
        </mxCell>
        <mxCell id="Z_lSCng-xkJckpSG0J26-181" value="&lt;font color=&quot;#ff0000&quot;&gt;&lt;u&gt;Напоминание о статусе актуальности задачи&lt;/u&gt;&lt;/font&gt;" style="connectable=0;recursiveResize=0;strokeColor=inherit;fillColor=none;align=center;whiteSpace=wrap;html=1;" vertex="1" parent="Z_lSCng-xkJckpSG0J26-180">
          <mxGeometry width="640" height="37" as="geometry">
            <mxRectangle width="640" height="37" as="alternateBounds" />
          </mxGeometry>
        </mxCell>
        <mxCell id="Z_lSCng-xkJckpSG0J26-182" value="&lt;font color=&quot;#ff0000&quot;&gt;&lt;u&gt;Вкл./Выкл.&lt;/u&gt;&lt;/font&gt;" style="connectable=0;recursiveResize=0;strokeColor=inherit;fillColor=none;align=center;whiteSpace=wrap;html=1;" vertex="1" parent="Z_lSCng-xkJckpSG0J26-180">
          <mxGeometry x="640" width="130" height="37" as="geometry">
            <mxRectangle width="130" height="37" as="alternateBounds" />
          </mxGeometry>
        </mxCell>
        <mxCell id="Z_lSCng-xkJckpSG0J26-183" style="shape=tableRow;horizontal=0;startSize=0;swimlaneHead=0;swimlaneBody=0;top=0;left=0;bottom=0;right=0;dropTarget=0;collapsible=0;recursiveResize=0;expand=0;fontStyle=0;fillColor=none;strokeColor=inherit;" vertex="1" parent="Z_lSCng-xkJckpSG0J26-167">
          <mxGeometry y="184" width="770" height="37" as="geometry" />
        </mxCell>
        <mxCell id="Z_lSCng-xkJckpSG0J26-184" value="&lt;font color=&quot;#ff0000&quot;&gt;&lt;u&gt;Оповещение всплывающим окном&lt;/u&gt;&lt;/font&gt;" style="connectable=0;recursiveResize=0;strokeColor=inherit;fillColor=none;align=center;whiteSpace=wrap;html=1;" vertex="1" parent="Z_lSCng-xkJckpSG0J26-183">
          <mxGeometry width="640" height="37" as="geometry">
            <mxRectangle width="640" height="37" as="alternateBounds" />
          </mxGeometry>
        </mxCell>
        <mxCell id="Z_lSCng-xkJckpSG0J26-185" value="&lt;u&gt;&lt;font color=&quot;#ff0000&quot;&gt;Вкл./Выкл.&lt;/font&gt;&lt;/u&gt;" style="connectable=0;recursiveResize=0;strokeColor=inherit;fillColor=none;align=center;whiteSpace=wrap;html=1;" vertex="1" parent="Z_lSCng-xkJckpSG0J26-183">
          <mxGeometry x="640" width="130" height="37" as="geometry">
            <mxRectangle width="130" height="37" as="alternateBounds" />
          </mxGeometry>
        </mxCell>
        <mxCell id="Z_lSCng-xkJckpSG0J26-186" style="shape=tableRow;horizontal=0;startSize=0;swimlaneHead=0;swimlaneBody=0;top=0;left=0;bottom=0;right=0;dropTarget=0;collapsible=0;recursiveResize=0;expand=0;fontStyle=0;fillColor=none;strokeColor=inherit;" vertex="1" parent="Z_lSCng-xkJckpSG0J26-167">
          <mxGeometry y="221" width="770" height="37" as="geometry" />
        </mxCell>
        <mxCell id="Z_lSCng-xkJckpSG0J26-187" value="Сортировка планов и задач по рабочим командам" style="connectable=0;recursiveResize=0;strokeColor=inherit;fillColor=none;align=center;whiteSpace=wrap;html=1;" vertex="1" parent="Z_lSCng-xkJckpSG0J26-186">
          <mxGeometry width="640" height="37" as="geometry">
            <mxRectangle width="640" height="37" as="alternateBounds" />
          </mxGeometry>
        </mxCell>
        <mxCell id="Z_lSCng-xkJckpSG0J26-188" value="Вкл./Выкл." style="connectable=0;recursiveResize=0;strokeColor=inherit;fillColor=none;align=center;whiteSpace=wrap;html=1;" vertex="1" parent="Z_lSCng-xkJckpSG0J26-186">
          <mxGeometry x="640" width="130" height="37" as="geometry">
            <mxRectangle width="130" height="37" as="alternateBounds" />
          </mxGeometry>
        </mxCell>
        <mxCell id="Z_lSCng-xkJckpSG0J26-189" style="shape=tableRow;horizontal=0;startSize=0;swimlaneHead=0;swimlaneBody=0;top=0;left=0;bottom=0;right=0;dropTarget=0;collapsible=0;recursiveResize=0;expand=0;fontStyle=0;fillColor=none;strokeColor=inherit;" vertex="1" parent="Z_lSCng-xkJckpSG0J26-167">
          <mxGeometry y="258" width="770" height="37" as="geometry" />
        </mxCell>
        <mxCell id="Z_lSCng-xkJckpSG0J26-190" value="Сортировка по времени выполнения" style="connectable=0;recursiveResize=0;strokeColor=inherit;fillColor=none;align=center;whiteSpace=wrap;html=1;" vertex="1" parent="Z_lSCng-xkJckpSG0J26-189">
          <mxGeometry width="640" height="37" as="geometry">
            <mxRectangle width="640" height="37" as="alternateBounds" />
          </mxGeometry>
        </mxCell>
        <mxCell id="Z_lSCng-xkJckpSG0J26-191" value="Вкл./Выкл." style="connectable=0;recursiveResize=0;strokeColor=inherit;fillColor=none;align=center;whiteSpace=wrap;html=1;" vertex="1" parent="Z_lSCng-xkJckpSG0J26-189">
          <mxGeometry x="640" width="130" height="37" as="geometry">
            <mxRectangle width="130" height="37" as="alternateBounds" />
          </mxGeometry>
        </mxCell>
        <mxCell id="Z_lSCng-xkJckpSG0J26-192" value="Настройки таблиц и графиков" style="label;whiteSpace=wrap;html=1;image=img/clipart/Gear_128x128.png;strokeColor=#FF0000;strokeWidth=2;" vertex="1" parent="1">
          <mxGeometry x="400" y="172" width="180" height="40" as="geometry" />
        </mxCell>
        <mxCell id="Z_lSCng-xkJckpSG0J26-193" value="" style="endArrow=classic;html=1;rounded=0;strokeColor=#FF0000;strokeWidth=2;" edge="1" parent="1">
          <mxGeometry width="50" height="50" relative="1" as="geometry">
            <mxPoint x="520" y="120" as="sourcePoint" />
            <mxPoint x="500" y="150" as="targetPoint" />
            <Array as="points">
              <mxPoint x="500" y="120" />
            </Array>
          </mxGeometry>
        </mxCell>
        <mxCell id="Z_lSCng-xkJckpSG0J26-194" value="" style="endArrow=classic;startArrow=classic;html=1;rounded=0;entryX=0.5;entryY=1;entryDx=0;entryDy=0;exitX=0.57;exitY=-0.023;exitDx=0;exitDy=0;exitPerimeter=0;" edge="1" parent="1" source="Z_lSCng-xkJckpSG0J26-168" target="Z_lSCng-xkJckpSG0J26-192">
          <mxGeometry width="50" height="50" relative="1" as="geometry">
            <mxPoint x="340" y="280" as="sourcePoint" />
            <mxPoint x="390" y="230" as="targetPoint" />
          </mxGeometry>
        </mxCell>
        <mxCell id="Z_lSCng-xkJckpSG0J26-195" value="Настройки таблиц и графиков" style="label;whiteSpace=wrap;html=1;image=img/clipart/Gear_128x128.png" vertex="1" parent="1">
          <mxGeometry x="2830" y="169" width="180" height="40" as="geometry" />
        </mxCell>
        <mxCell id="Z_lSCng-xkJckpSG0J26-196" value="Настройки таблиц и графиков." style="rounded=1;whiteSpace=wrap;html=1;" vertex="1" parent="1">
          <mxGeometry x="530" y="80" width="130" height="50" as="geometry" />
        </mxCell>
        <mxCell id="Z_lSCng-xkJckpSG0J26-197" value="" style="endArrow=none;html=1;rounded=0;fillColor=#f8cecc;strokeColor=#b85450;strokeWidth=5;" edge="1" parent="1">
          <mxGeometry width="50" height="50" relative="1" as="geometry">
            <mxPoint x="1940" y="210" as="sourcePoint" />
            <mxPoint x="1940" y="210" as="targetPoint" />
            <Array as="points">
              <mxPoint x="1940" y="290" />
              <mxPoint x="1820" y="290" />
              <mxPoint x="1820" y="210" />
            </Array>
          </mxGeometry>
        </mxCell>
        <mxCell id="Z_lSCng-xkJckpSG0J26-198" value="" style="endArrow=none;html=1;rounded=0;entryX=1;entryY=0.5;entryDx=0;entryDy=0;exitX=-0.013;exitY=0.648;exitDx=0;exitDy=0;exitPerimeter=0;" edge="1" parent="1" source="Z_lSCng-xkJckpSG0J26-76" target="Z_lSCng-xkJckpSG0J26-196">
          <mxGeometry width="50" height="50" relative="1" as="geometry">
            <mxPoint x="870" y="273" as="sourcePoint" />
            <mxPoint x="920" y="223" as="targetPoint" />
            <Array as="points">
              <mxPoint x="680" y="105" />
            </Array>
          </mxGeometry>
        </mxCell>
        <mxCell id="Z_lSCng-xkJckpSG0J26-199" value="" style="rounded=0;whiteSpace=wrap;html=1;" vertex="1" parent="1">
          <mxGeometry x="3600" y="160" width="800" height="400" as="geometry" />
        </mxCell>
        <mxCell id="Z_lSCng-xkJckpSG0J26-200" value="" style="childLayout=tableLayout;recursiveResize=0;shadow=0;fillColor=none;" vertex="1" parent="1">
          <mxGeometry x="3640" y="234" width="720" height="296" as="geometry" />
        </mxCell>
        <mxCell id="Z_lSCng-xkJckpSG0J26-201" value="" style="shape=tableRow;horizontal=0;startSize=0;swimlaneHead=0;swimlaneBody=0;top=0;left=0;bottom=0;right=0;dropTarget=0;collapsible=0;recursiveResize=0;expand=0;fontStyle=0;fillColor=none;strokeColor=inherit;" vertex="1" parent="Z_lSCng-xkJckpSG0J26-200">
          <mxGeometry width="720" height="43" as="geometry" />
        </mxCell>
        <mxCell id="Z_lSCng-xkJckpSG0J26-202" value="Документы" style="connectable=0;recursiveResize=0;strokeColor=#6c8ebf;fillColor=#dae8fc;align=center;whiteSpace=wrap;html=1;rowspan=1;colspan=3;" vertex="1" parent="Z_lSCng-xkJckpSG0J26-201">
          <mxGeometry width="720" height="43" as="geometry">
            <mxRectangle width="240" height="43" as="alternateBounds" />
          </mxGeometry>
        </mxCell>
        <mxCell id="Z_lSCng-xkJckpSG0J26-203" value="" style="connectable=0;recursiveResize=0;strokeColor=inherit;fillColor=none;align=center;whiteSpace=wrap;html=1;" vertex="1" visible="0" parent="Z_lSCng-xkJckpSG0J26-201">
          <mxGeometry x="240" width="240" height="43" as="geometry">
            <mxRectangle width="240" height="43" as="alternateBounds" />
          </mxGeometry>
        </mxCell>
        <mxCell id="Z_lSCng-xkJckpSG0J26-204" value="" style="connectable=0;recursiveResize=0;strokeColor=inherit;fillColor=none;align=center;whiteSpace=wrap;html=1;" vertex="1" visible="0" parent="Z_lSCng-xkJckpSG0J26-201">
          <mxGeometry x="480" width="240" height="43" as="geometry">
            <mxRectangle width="240" height="43" as="alternateBounds" />
          </mxGeometry>
        </mxCell>
        <mxCell id="Z_lSCng-xkJckpSG0J26-205" style="shape=tableRow;horizontal=0;startSize=0;swimlaneHead=0;swimlaneBody=0;top=0;left=0;bottom=0;right=0;dropTarget=0;collapsible=0;recursiveResize=0;expand=0;fontStyle=0;fillColor=none;strokeColor=inherit;" vertex="1" parent="Z_lSCng-xkJckpSG0J26-200">
          <mxGeometry y="43" width="720" height="41" as="geometry" />
        </mxCell>
        <mxCell id="Z_lSCng-xkJckpSG0J26-206" value="&lt;span style=&quot;text-align: left;&quot;&gt;Протокол принятия 2-го этапа работ&lt;/span&gt;" style="connectable=0;recursiveResize=0;strokeColor=inherit;fillColor=none;align=center;whiteSpace=wrap;html=1;rowspan=1;colspan=3;" vertex="1" parent="Z_lSCng-xkJckpSG0J26-205">
          <mxGeometry width="720" height="41" as="geometry">
            <mxRectangle width="240" height="41" as="alternateBounds" />
          </mxGeometry>
        </mxCell>
        <mxCell id="Z_lSCng-xkJckpSG0J26-207" value="" style="connectable=0;recursiveResize=0;strokeColor=inherit;fillColor=none;align=center;whiteSpace=wrap;html=1;" vertex="1" visible="0" parent="Z_lSCng-xkJckpSG0J26-205">
          <mxGeometry x="240" width="240" height="41" as="geometry">
            <mxRectangle width="240" height="41" as="alternateBounds" />
          </mxGeometry>
        </mxCell>
        <mxCell id="Z_lSCng-xkJckpSG0J26-208" value="" style="connectable=0;recursiveResize=0;strokeColor=inherit;fillColor=none;align=center;whiteSpace=wrap;html=1;" vertex="1" visible="0" parent="Z_lSCng-xkJckpSG0J26-205">
          <mxGeometry x="480" width="240" height="41" as="geometry">
            <mxRectangle width="240" height="41" as="alternateBounds" />
          </mxGeometry>
        </mxCell>
        <mxCell id="Z_lSCng-xkJckpSG0J26-209" style="shape=tableRow;horizontal=0;startSize=0;swimlaneHead=0;swimlaneBody=0;top=0;left=0;bottom=0;right=0;dropTarget=0;collapsible=0;recursiveResize=0;expand=0;fontStyle=0;fillColor=none;strokeColor=inherit;" vertex="1" parent="Z_lSCng-xkJckpSG0J26-200">
          <mxGeometry y="84" width="720" height="212" as="geometry" />
        </mxCell>
        <mxCell id="Z_lSCng-xkJckpSG0J26-210" value="" style="connectable=0;recursiveResize=0;strokeColor=inherit;fillColor=none;align=center;whiteSpace=wrap;html=1;rowspan=1;colspan=3;" vertex="1" parent="Z_lSCng-xkJckpSG0J26-209">
          <mxGeometry width="720" height="212" as="geometry">
            <mxRectangle width="240" height="212" as="alternateBounds" />
          </mxGeometry>
        </mxCell>
        <mxCell id="Z_lSCng-xkJckpSG0J26-211" value="" style="connectable=0;recursiveResize=0;strokeColor=inherit;fillColor=none;align=center;whiteSpace=wrap;html=1;" vertex="1" visible="0" parent="Z_lSCng-xkJckpSG0J26-209">
          <mxGeometry x="240" width="240" height="212" as="geometry">
            <mxRectangle width="240" height="212" as="alternateBounds" />
          </mxGeometry>
        </mxCell>
        <mxCell id="Z_lSCng-xkJckpSG0J26-212" value="" style="connectable=0;recursiveResize=0;strokeColor=inherit;fillColor=none;align=center;whiteSpace=wrap;html=1;" vertex="1" visible="0" parent="Z_lSCng-xkJckpSG0J26-209">
          <mxGeometry x="480" width="240" height="212" as="geometry">
            <mxRectangle width="240" height="212" as="alternateBounds" />
          </mxGeometry>
        </mxCell>
        <mxCell id="Z_lSCng-xkJckpSG0J26-213" value="10:05 18.01.22" style="text;html=1;align=center;verticalAlign=middle;whiteSpace=wrap;rounded=0;strokeColor=default;" vertex="1" parent="1">
          <mxGeometry x="4320" y="160" width="80" height="40" as="geometry" />
        </mxCell>
        <mxCell id="Z_lSCng-xkJckpSG0J26-214" value="" style="endArrow=classic;html=1;rounded=0;" edge="1" parent="1">
          <mxGeometry width="50" height="50" relative="1" as="geometry">
            <mxPoint x="850" y="360" as="sourcePoint" />
            <mxPoint x="1160" y="360" as="targetPoint" />
          </mxGeometry>
        </mxCell>
        <mxCell id="Z_lSCng-xkJckpSG0J26-215" value="" style="endArrow=classic;html=1;rounded=0;" edge="1" parent="1">
          <mxGeometry width="50" height="50" relative="1" as="geometry">
            <mxPoint x="2050" y="359.29" as="sourcePoint" />
            <mxPoint x="2330" y="359" as="targetPoint" />
          </mxGeometry>
        </mxCell>
        <mxCell id="Z_lSCng-xkJckpSG0J26-216" value="" style="endArrow=classic;html=1;rounded=0;" edge="1" parent="1">
          <mxGeometry width="50" height="50" relative="1" as="geometry">
            <mxPoint x="3250" y="359.28999999999996" as="sourcePoint" />
            <mxPoint x="3500" y="360" as="targetPoint" />
          </mxGeometry>
        </mxCell>
        <mxCell id="Z_lSCng-xkJckpSG0J26-217" value="" style="endArrow=classic;html=1;rounded=0;" edge="1" parent="1">
          <mxGeometry width="50" height="50" relative="1" as="geometry">
            <mxPoint x="1180" y="360" as="sourcePoint" />
            <mxPoint x="1230" y="360" as="targetPoint" />
          </mxGeometry>
        </mxCell>
        <mxCell id="Z_lSCng-xkJckpSG0J26-218" value="" style="endArrow=classic;html=1;rounded=0;" edge="1" parent="1">
          <mxGeometry width="50" height="50" relative="1" as="geometry">
            <mxPoint x="2360" y="359.41" as="sourcePoint" />
            <mxPoint x="2420" y="359.41" as="targetPoint" />
          </mxGeometry>
        </mxCell>
        <mxCell id="Z_lSCng-xkJckpSG0J26-219" value="" style="endArrow=classic;html=1;rounded=0;" edge="1" parent="1">
          <mxGeometry width="50" height="50" relative="1" as="geometry">
            <mxPoint x="3530" y="359.40999999999997" as="sourcePoint" />
            <mxPoint x="3590" y="359.40999999999997" as="targetPoint" />
          </mxGeometry>
        </mxCell>
        <mxCell id="Z_lSCng-xkJckpSG0J26-220" value="" style="endArrow=classic;html=1;rounded=0;entryX=0.25;entryY=0;entryDx=0;entryDy=0;strokeColor=#FF0000;strokeWidth=2;" edge="1" parent="1" target="Z_lSCng-xkJckpSG0J26-209">
          <mxGeometry width="50" height="50" relative="1" as="geometry">
            <mxPoint x="3820" y="120" as="sourcePoint" />
            <mxPoint x="3820" y="150" as="targetPoint" />
          </mxGeometry>
        </mxCell>
        <mxCell id="Z_lSCng-xkJckpSG0J26-221" value="В ходе работы в назначенное для напоминания время появляется уведомление о текущем статусе работы, напоминающее так же о скором дедлайне.&amp;nbsp;" style="text;html=1;align=center;verticalAlign=middle;whiteSpace=wrap;rounded=0;strokeColor=default;" vertex="1" parent="1">
          <mxGeometry x="3800" y="40" width="240" height="80" as="geometry" />
        </mxCell>
        <mxCell id="Z_lSCng-xkJckpSG0J26-222" value="" style="rounded=0;whiteSpace=wrap;html=1;strokeColor=#FF0000;strokeWidth=2;perimeterSpacing=0;glass=0;" vertex="1" parent="1">
          <mxGeometry x="3670" y="331" width="670" height="140" as="geometry" />
        </mxCell>
        <mxCell id="Z_lSCng-xkJckpSG0J26-223" value="18.01.22 - Составить протокол принятия 2-го этапа работ. Задача начата 13.01.22.&amp;nbsp;&lt;div&gt;Срок выполнения 3-ри рабочих дня. Текущий статус: В работе.&lt;/div&gt;" style="text;html=1;align=center;verticalAlign=middle;whiteSpace=wrap;rounded=0;strokeColor=#000000;strokeWidth=1;textShadow=0;" vertex="1" parent="1">
          <mxGeometry x="3680" y="341" width="650" height="120" as="geometry" />
        </mxCell>
        <mxCell id="Z_lSCng-xkJckpSG0J26-224" value="Закрыть" style="rounded=1;whiteSpace=wrap;html=1;strokeColor=#1100FF;strokeWidth=2;" vertex="1" parent="1">
          <mxGeometry x="3965" y="431" width="80" height="20" as="geometry" />
        </mxCell>
      </root>
    </mxGraphModel>
  </diagram>
  <diagram id="4Qtbux-AFp3kHq6eNs-C" name="Страница — 3">
    <mxGraphModel dx="1114" dy="709" grid="1" gridSize="10" guides="1" tooltips="1" connect="1" arrows="1" fold="1" page="1" pageScale="1" pageWidth="827" pageHeight="1169" math="0" shadow="0">
      <root>
        <mxCell id="0" />
        <mxCell id="1" parent="0" />
        <mxCell id="iBQEOEvAlISCtAE4Gvr2-1" value="4. Use case" style="text;html=1;align=center;verticalAlign=middle;whiteSpace=wrap;rounded=0;fontSize=14;fontStyle=1" vertex="1" parent="1">
          <mxGeometry x="80" y="80" width="80" height="30" as="geometry" />
        </mxCell>
        <mxCell id="iBQEOEvAlISCtAE4Gvr2-2" value="&lt;div&gt;Use case (вариант использования) — это описание того, как пользователь взаимодействует с&amp;nbsp;&lt;span style=&quot;background-color: initial;&quot;&gt;системой, чтобы достичь определенной цели. Варианты использования помогают понять&amp;nbsp;&lt;/span&gt;&lt;span style=&quot;font-size: 14px; background-color: initial;&quot;&gt;требования к системе и то, как она будет работать в разных сценариях.&lt;/span&gt;&lt;/div&gt;" style="text;html=1;align=left;verticalAlign=middle;whiteSpace=wrap;rounded=0;" vertex="1" parent="1">
          <mxGeometry x="80" y="120" width="680" height="50" as="geometry" />
        </mxCell>
        <mxCell id="iBQEOEvAlISCtAE4Gvr2-3" value="" style="shape=table;startSize=0;container=1;collapsible=0;childLayout=tableLayout;" vertex="1" parent="1">
          <mxGeometry x="40" y="200" width="760" height="890" as="geometry" />
        </mxCell>
        <mxCell id="iBQEOEvAlISCtAE4Gvr2-4" value="" style="shape=tableRow;horizontal=0;startSize=0;swimlaneHead=0;swimlaneBody=0;strokeColor=inherit;top=0;left=0;bottom=0;right=0;collapsible=0;dropTarget=0;fillColor=none;points=[[0,0.5],[1,0.5]];portConstraint=eastwest;" vertex="1" parent="iBQEOEvAlISCtAE4Gvr2-3">
          <mxGeometry width="760" height="40" as="geometry" />
        </mxCell>
        <mxCell id="iBQEOEvAlISCtAE4Gvr2-5" value="&lt;b&gt;Заголовок&lt;/b&gt;" style="shape=partialRectangle;html=1;whiteSpace=wrap;connectable=0;strokeColor=inherit;overflow=hidden;fillColor=none;top=0;left=0;bottom=0;right=0;pointerEvents=1;" vertex="1" parent="iBQEOEvAlISCtAE4Gvr2-4">
          <mxGeometry width="202" height="40" as="geometry">
            <mxRectangle width="202" height="40" as="alternateBounds" />
          </mxGeometry>
        </mxCell>
        <mxCell id="iBQEOEvAlISCtAE4Gvr2-6" value="Установка и получение уведомления о степени актуальности задачи." style="shape=partialRectangle;html=1;whiteSpace=wrap;connectable=0;strokeColor=inherit;overflow=hidden;fillColor=none;top=0;left=0;bottom=0;right=0;pointerEvents=1;spacingLeft=7;spacingRight=7;" vertex="1" parent="iBQEOEvAlISCtAE4Gvr2-4">
          <mxGeometry x="202" width="558" height="40" as="geometry">
            <mxRectangle width="558" height="40" as="alternateBounds" />
          </mxGeometry>
        </mxCell>
        <mxCell id="iBQEOEvAlISCtAE4Gvr2-7" value="" style="shape=tableRow;horizontal=0;startSize=0;swimlaneHead=0;swimlaneBody=0;strokeColor=inherit;top=0;left=0;bottom=0;right=0;collapsible=0;dropTarget=0;fillColor=none;points=[[0,0.5],[1,0.5]];portConstraint=eastwest;" vertex="1" parent="iBQEOEvAlISCtAE4Gvr2-3">
          <mxGeometry y="40" width="760" height="40" as="geometry" />
        </mxCell>
        <mxCell id="iBQEOEvAlISCtAE4Gvr2-8" value="&lt;b&gt;Акторы&lt;/b&gt;" style="shape=partialRectangle;html=1;whiteSpace=wrap;connectable=0;strokeColor=inherit;overflow=hidden;fillColor=none;top=0;left=0;bottom=0;right=0;pointerEvents=1;" vertex="1" parent="iBQEOEvAlISCtAE4Gvr2-7">
          <mxGeometry width="202" height="40" as="geometry">
            <mxRectangle width="202" height="40" as="alternateBounds" />
          </mxGeometry>
        </mxCell>
        <mxCell id="iBQEOEvAlISCtAE4Gvr2-9" value="Пользователь (клиент) - желающий систематизировать и оптимизировать свою работу." style="shape=partialRectangle;html=1;whiteSpace=wrap;connectable=0;strokeColor=inherit;overflow=hidden;fillColor=none;top=0;left=0;bottom=0;right=0;pointerEvents=1;spacingLeft=7;spacingRight=7;" vertex="1" parent="iBQEOEvAlISCtAE4Gvr2-7">
          <mxGeometry x="202" width="558" height="40" as="geometry">
            <mxRectangle width="558" height="40" as="alternateBounds" />
          </mxGeometry>
        </mxCell>
        <mxCell id="iBQEOEvAlISCtAE4Gvr2-10" value="" style="shape=tableRow;horizontal=0;startSize=0;swimlaneHead=0;swimlaneBody=0;strokeColor=inherit;top=0;left=0;bottom=0;right=0;collapsible=0;dropTarget=0;fillColor=none;points=[[0,0.5],[1,0.5]];portConstraint=eastwest;" vertex="1" parent="iBQEOEvAlISCtAE4Gvr2-3">
          <mxGeometry y="80" width="760" height="40" as="geometry" />
        </mxCell>
        <mxCell id="iBQEOEvAlISCtAE4Gvr2-11" value="&lt;b&gt;Предусловие&lt;/b&gt;" style="shape=partialRectangle;html=1;whiteSpace=wrap;connectable=0;strokeColor=inherit;overflow=hidden;fillColor=none;top=0;left=0;bottom=0;right=0;pointerEvents=1;" vertex="1" parent="iBQEOEvAlISCtAE4Gvr2-10">
          <mxGeometry width="202" height="40" as="geometry">
            <mxRectangle width="202" height="40" as="alternateBounds" />
          </mxGeometry>
        </mxCell>
        <mxCell id="iBQEOEvAlISCtAE4Gvr2-12" value="Работе приложения, устройства и пользователя ничто не мешает и все данные для формирования уведомления заполнены." style="shape=partialRectangle;html=1;whiteSpace=wrap;connectable=0;strokeColor=inherit;overflow=hidden;fillColor=none;top=0;left=0;bottom=0;right=0;pointerEvents=1;spacingLeft=7;spacingRight=7;" vertex="1" parent="iBQEOEvAlISCtAE4Gvr2-10">
          <mxGeometry x="202" width="558" height="40" as="geometry">
            <mxRectangle width="558" height="40" as="alternateBounds" />
          </mxGeometry>
        </mxCell>
        <mxCell id="iBQEOEvAlISCtAE4Gvr2-13" value="" style="shape=tableRow;horizontal=0;startSize=0;swimlaneHead=0;swimlaneBody=0;strokeColor=inherit;top=0;left=0;bottom=0;right=0;collapsible=0;dropTarget=0;fillColor=none;points=[[0,0.5],[1,0.5]];portConstraint=eastwest;" vertex="1" parent="iBQEOEvAlISCtAE4Gvr2-3">
          <mxGeometry y="120" width="760" height="60" as="geometry" />
        </mxCell>
        <mxCell id="iBQEOEvAlISCtAE4Gvr2-14" value="&lt;b&gt;Ограничения&lt;/b&gt;" style="shape=partialRectangle;html=1;whiteSpace=wrap;connectable=0;strokeColor=inherit;overflow=hidden;fillColor=none;top=0;left=0;bottom=0;right=0;pointerEvents=1;" vertex="1" parent="iBQEOEvAlISCtAE4Gvr2-13">
          <mxGeometry width="202" height="60" as="geometry">
            <mxRectangle width="202" height="60" as="alternateBounds" />
          </mxGeometry>
        </mxCell>
        <mxCell id="iBQEOEvAlISCtAE4Gvr2-15" value="Приложение выдаст уведомление только при включенном устройстве.&lt;div&gt;&lt;div&gt;Приложение выдаст уведомление с учетом установленной пользователем задержки в настройках.&lt;/div&gt;&lt;/div&gt;" style="shape=partialRectangle;html=1;whiteSpace=wrap;connectable=0;strokeColor=inherit;overflow=hidden;fillColor=none;top=0;left=0;bottom=0;right=0;pointerEvents=1;spacingLeft=7;spacingRight=7;" vertex="1" parent="iBQEOEvAlISCtAE4Gvr2-13">
          <mxGeometry x="202" width="558" height="60" as="geometry">
            <mxRectangle width="558" height="60" as="alternateBounds" />
          </mxGeometry>
        </mxCell>
        <mxCell id="iBQEOEvAlISCtAE4Gvr2-16" value="" style="shape=tableRow;horizontal=0;startSize=0;swimlaneHead=0;swimlaneBody=0;strokeColor=inherit;top=0;left=0;bottom=0;right=0;collapsible=0;dropTarget=0;fillColor=none;points=[[0,0.5],[1,0.5]];portConstraint=eastwest;" vertex="1" parent="iBQEOEvAlISCtAE4Gvr2-3">
          <mxGeometry y="180" width="760" height="40" as="geometry" />
        </mxCell>
        <mxCell id="iBQEOEvAlISCtAE4Gvr2-17" value="&lt;b&gt;Триггер&lt;/b&gt;" style="shape=partialRectangle;html=1;whiteSpace=wrap;connectable=0;strokeColor=inherit;overflow=hidden;fillColor=none;top=0;left=0;bottom=0;right=0;pointerEvents=1;" vertex="1" parent="iBQEOEvAlISCtAE4Gvr2-16">
          <mxGeometry width="202" height="40" as="geometry">
            <mxRectangle width="202" height="40" as="alternateBounds" />
          </mxGeometry>
        </mxCell>
        <mxCell id="iBQEOEvAlISCtAE4Gvr2-18" value="Пользователь приложения активирует функцию уведомлений и их вывода на экран." style="shape=partialRectangle;html=1;whiteSpace=wrap;connectable=0;strokeColor=inherit;overflow=hidden;fillColor=none;top=0;left=0;bottom=0;right=0;pointerEvents=1;spacingLeft=7;spacingRight=7;" vertex="1" parent="iBQEOEvAlISCtAE4Gvr2-16">
          <mxGeometry x="202" width="558" height="40" as="geometry">
            <mxRectangle width="558" height="40" as="alternateBounds" />
          </mxGeometry>
        </mxCell>
        <mxCell id="iBQEOEvAlISCtAE4Gvr2-19" value="" style="shape=tableRow;horizontal=0;startSize=0;swimlaneHead=0;swimlaneBody=0;strokeColor=inherit;top=0;left=0;bottom=0;right=0;collapsible=0;dropTarget=0;fillColor=none;points=[[0,0.5],[1,0.5]];portConstraint=eastwest;" vertex="1" parent="iBQEOEvAlISCtAE4Gvr2-3">
          <mxGeometry y="220" width="760" height="270" as="geometry" />
        </mxCell>
        <mxCell id="iBQEOEvAlISCtAE4Gvr2-20" value="&lt;b&gt;Основной сценарий&lt;/b&gt;" style="shape=partialRectangle;html=1;whiteSpace=wrap;connectable=0;strokeColor=inherit;overflow=hidden;fillColor=none;top=0;left=0;bottom=0;right=0;pointerEvents=1;" vertex="1" parent="iBQEOEvAlISCtAE4Gvr2-19">
          <mxGeometry width="202" height="270" as="geometry">
            <mxRectangle width="202" height="270" as="alternateBounds" />
          </mxGeometry>
        </mxCell>
        <mxCell id="iBQEOEvAlISCtAE4Gvr2-21" value="&lt;div style=&quot;text-align: left;&quot;&gt;&lt;span style=&quot;white-space: pre;&quot;&gt;&#x9;&lt;/span&gt;&lt;span style=&quot;background-color: initial; text-align: center;&quot;&gt;1-Пользователь выполняет действия на устройстве.&amp;nbsp;&lt;/span&gt;&lt;/div&gt;&lt;div style=&quot;text-align: left;&quot;&gt;&lt;span style=&quot;background-color: initial; text-align: center;&quot;&gt;&lt;span style=&quot;white-space: pre;&quot;&gt;&#x9;&lt;/span&gt;2-Система выдает уведомление согласно заданным настройкам/параметрам.&amp;nbsp;&lt;/span&gt;&lt;/div&gt;&lt;div style=&quot;text-align: left;&quot;&gt;&lt;span style=&quot;background-color: initial; text-align: center;&quot;&gt;&lt;span style=&quot;white-space: pre;&quot;&gt;&#x9;&lt;/span&gt;3-Пользователь закрывает уведомление.&amp;nbsp;&lt;/span&gt;&lt;/div&gt;&lt;div style=&quot;text-align: left;&quot;&gt;&lt;span style=&quot;background-color: initial; text-align: center;&quot;&gt;&lt;span style=&quot;white-space: pre;&quot;&gt;&#x9;&lt;/span&gt;4-Система переходит в режим ожидания.&amp;nbsp;&lt;/span&gt;&lt;/div&gt;&lt;div style=&quot;text-align: left;&quot;&gt;&lt;span style=&quot;background-color: initial; text-align: center;&quot;&gt;&lt;span style=&quot;white-space: pre;&quot;&gt;&#x9;&lt;/span&gt;5-Пользователь продолжает свою работу.&lt;br&gt;&lt;/span&gt;&lt;br&gt;&lt;/div&gt;&lt;span style=&quot;background-color: initial;&quot;&gt;&lt;div style=&quot;text-align: left;&quot;&gt;&lt;b style=&quot;font-weight: bold; background-color: initial;&quot;&gt;&lt;span style=&quot;white-space: pre;&quot;&gt;&#x9;&lt;/span&gt;&lt;/b&gt;&lt;b style=&quot;font-weight: bold; background-color: initial; text-align: center;&quot;&gt;Критерий успеха: &lt;/b&gt;&lt;span style=&quot;background-color: initial; text-align: center;&quot;&gt;Пользователь получил необходимое ему уведомление, &lt;span style=&quot;white-space: pre;&quot;&gt;&#x9;&lt;/span&gt;систематизировав и оптимизировав свой рабочий процесс.&lt;/span&gt;&lt;/div&gt;&lt;/span&gt;" style="shape=partialRectangle;html=1;whiteSpace=wrap;connectable=0;strokeColor=inherit;overflow=hidden;fillColor=none;top=0;left=0;bottom=0;right=0;pointerEvents=1;spacingLeft=7;spacingRight=7;" vertex="1" parent="iBQEOEvAlISCtAE4Gvr2-19">
          <mxGeometry x="202" width="558" height="270" as="geometry">
            <mxRectangle width="558" height="270" as="alternateBounds" />
          </mxGeometry>
        </mxCell>
        <mxCell id="iBQEOEvAlISCtAE4Gvr2-22" value="" style="shape=tableRow;horizontal=0;startSize=0;swimlaneHead=0;swimlaneBody=0;strokeColor=inherit;top=0;left=0;bottom=0;right=0;collapsible=0;dropTarget=0;fillColor=none;points=[[0,0.5],[1,0.5]];portConstraint=eastwest;" vertex="1" parent="iBQEOEvAlISCtAE4Gvr2-3">
          <mxGeometry y="490" width="760" height="100" as="geometry" />
        </mxCell>
        <mxCell id="iBQEOEvAlISCtAE4Gvr2-23" value="&lt;b&gt;Альтернативный сценарий&lt;/b&gt;" style="shape=partialRectangle;html=1;whiteSpace=wrap;connectable=0;strokeColor=inherit;overflow=hidden;fillColor=none;top=0;left=0;bottom=0;right=0;pointerEvents=1;" vertex="1" parent="iBQEOEvAlISCtAE4Gvr2-22">
          <mxGeometry width="202" height="100" as="geometry">
            <mxRectangle width="202" height="100" as="alternateBounds" />
          </mxGeometry>
        </mxCell>
        <mxCell id="iBQEOEvAlISCtAE4Gvr2-24" value="&lt;div&gt;Не предусмотрен.&lt;/div&gt;" style="shape=partialRectangle;html=1;whiteSpace=wrap;connectable=0;strokeColor=inherit;overflow=hidden;fillColor=none;top=0;left=0;bottom=0;right=0;pointerEvents=1;align=left;spacingLeft=7;spacingRight=7;" vertex="1" parent="iBQEOEvAlISCtAE4Gvr2-22">
          <mxGeometry x="202" width="558" height="100" as="geometry">
            <mxRectangle width="558" height="100" as="alternateBounds" />
          </mxGeometry>
        </mxCell>
        <mxCell id="iBQEOEvAlISCtAE4Gvr2-25" value="" style="shape=tableRow;horizontal=0;startSize=0;swimlaneHead=0;swimlaneBody=0;strokeColor=inherit;top=0;left=0;bottom=0;right=0;collapsible=0;dropTarget=0;fillColor=none;points=[[0,0.5],[1,0.5]];portConstraint=eastwest;" vertex="1" parent="iBQEOEvAlISCtAE4Gvr2-3">
          <mxGeometry y="590" width="760" height="150" as="geometry" />
        </mxCell>
        <mxCell id="iBQEOEvAlISCtAE4Gvr2-26" value="&lt;b&gt;Исключительный сценарий 1&lt;/b&gt;" style="shape=partialRectangle;html=1;whiteSpace=wrap;connectable=0;strokeColor=inherit;overflow=hidden;fillColor=none;top=0;left=0;bottom=0;right=0;pointerEvents=1;" vertex="1" parent="iBQEOEvAlISCtAE4Gvr2-25">
          <mxGeometry width="202" height="150" as="geometry">
            <mxRectangle width="202" height="150" as="alternateBounds" />
          </mxGeometry>
        </mxCell>
        <mxCell id="iBQEOEvAlISCtAE4Gvr2-27" value="&lt;div style=&quot;text-align: left;&quot;&gt;&lt;span style=&quot;background-color: initial;&quot;&gt;&lt;span style=&quot;white-space: pre;&quot;&gt;&#x9;&lt;/span&gt;2а. Система не выдает уведомление согласно заданным параметрам/настройкам.&lt;/span&gt;&lt;/div&gt;&lt;div style=&quot;text-align: left;&quot;&gt;&lt;/div&gt;&lt;div&gt;&lt;span style=&quot;text-align: left;&quot;&gt;&lt;br&gt;&lt;/span&gt;&lt;/div&gt;&lt;div style=&quot;text-align: left;&quot;&gt;&lt;b style=&quot;background-color: initial;&quot;&gt;&lt;span style=&quot;white-space: pre;&quot;&gt;&#x9;&lt;/span&gt;Результат&lt;/b&gt;&lt;b style=&quot;background-color: initial;&quot;&gt;:&amp;nbsp;&lt;/b&gt;&lt;span style=&quot;background-color: initial;&quot;&gt;Пользователь не получил системное уведомление.&lt;/span&gt;&lt;span style=&quot;text-align: left;&quot;&gt;&lt;br&gt;&lt;/span&gt;&lt;/div&gt;" style="shape=partialRectangle;html=1;whiteSpace=wrap;connectable=0;strokeColor=inherit;overflow=hidden;fillColor=none;top=0;left=0;bottom=0;right=0;pointerEvents=1;spacingLeft=7;spacingRight=7;" vertex="1" parent="iBQEOEvAlISCtAE4Gvr2-25">
          <mxGeometry x="202" width="558" height="150" as="geometry">
            <mxRectangle width="558" height="150" as="alternateBounds" />
          </mxGeometry>
        </mxCell>
        <mxCell id="iBQEOEvAlISCtAE4Gvr2-28" style="shape=tableRow;horizontal=0;startSize=0;swimlaneHead=0;swimlaneBody=0;strokeColor=inherit;top=0;left=0;bottom=0;right=0;collapsible=0;dropTarget=0;fillColor=none;points=[[0,0.5],[1,0.5]];portConstraint=eastwest;" vertex="1" parent="iBQEOEvAlISCtAE4Gvr2-3">
          <mxGeometry y="740" width="760" height="150" as="geometry" />
        </mxCell>
        <mxCell id="iBQEOEvAlISCtAE4Gvr2-29" value="&lt;b&gt;Исключительный сценарий 2&lt;/b&gt;" style="shape=partialRectangle;html=1;whiteSpace=wrap;connectable=0;strokeColor=inherit;overflow=hidden;fillColor=none;top=0;left=0;bottom=0;right=0;pointerEvents=1;" vertex="1" parent="iBQEOEvAlISCtAE4Gvr2-28">
          <mxGeometry width="202" height="150" as="geometry">
            <mxRectangle width="202" height="150" as="alternateBounds" />
          </mxGeometry>
        </mxCell>
        <mxCell id="iBQEOEvAlISCtAE4Gvr2-30" value="&lt;div style=&quot;text-align: left;&quot;&gt;&lt;span style=&quot;background-color: initial;&quot;&gt;&lt;span style=&quot;white-space: pre;&quot;&gt;&#x9;&lt;/span&gt;3а. Пользователь не может закрыть уведомление.&lt;/span&gt;&lt;/div&gt;&lt;div style=&quot;text-align: left;&quot;&gt;&lt;/div&gt;&lt;div&gt;&lt;span style=&quot;text-align: left;&quot;&gt;&lt;br&gt;&lt;/span&gt;&lt;/div&gt;&lt;div style=&quot;text-align: left;&quot;&gt;&lt;b style=&quot;background-color: initial;&quot;&gt;&lt;span style=&quot;white-space: pre;&quot;&gt;&#x9;&lt;/span&gt;Результат&lt;/b&gt;&lt;b style=&quot;background-color: initial;&quot;&gt;:&amp;nbsp;&lt;/b&gt;&lt;span style=&quot;background-color: initial;&quot;&gt;Пользователь не может продолжить работу.&lt;/span&gt;&lt;/div&gt;" style="shape=partialRectangle;html=1;whiteSpace=wrap;connectable=0;strokeColor=inherit;overflow=hidden;fillColor=none;top=0;left=0;bottom=0;right=0;pointerEvents=1;spacingLeft=7;spacingRight=7;" vertex="1" parent="iBQEOEvAlISCtAE4Gvr2-28">
          <mxGeometry x="202" width="558" height="150" as="geometry">
            <mxRectangle width="558" height="150" as="alternateBounds" />
          </mxGeometry>
        </mxCell>
      </root>
    </mxGraphModel>
  </diagram>
  <diagram id="HZzBf4ZxiCm91eIfrWVS" name="Страница — 4">
    <mxGraphModel dx="2369" dy="763" grid="1" gridSize="10" guides="1" tooltips="1" connect="1" arrows="1" fold="1" page="1" pageScale="1" pageWidth="1169" pageHeight="827" math="0" shadow="0">
      <root>
        <mxCell id="0" />
        <mxCell id="1" parent="0" />
        <mxCell id="ll7oGi6NwLo5zgsoNVYK-1" value="5. BPMN" style="text;html=1;align=center;verticalAlign=middle;whiteSpace=wrap;rounded=0;fontSize=14;fontStyle=1" vertex="1" parent="1">
          <mxGeometry x="-1080" y="80" width="80" height="30" as="geometry" />
        </mxCell>
        <mxCell id="ll7oGi6NwLo5zgsoNVYK-2" value="BPMN (Business Process Model and Notation) 2.0 — это стандартная нотация для моделирования бизнес-процессов. Она предоставляет графический язык для описания процессов организации, который понятен как бизнес-аналитикам, так и техническим специалистам. Основная цель BPMN — сделать бизнес-процессы более прозрачными и понятными для всех заинтересованных сторон, что упрощает их анализ и улучшение." style="text;html=1;align=left;verticalAlign=middle;whiteSpace=wrap;rounded=0;fontSize=14;" vertex="1" parent="1">
          <mxGeometry x="-1080" y="100" width="1000" height="90" as="geometry" />
        </mxCell>
        <mxCell id="ll7oGi6NwLo5zgsoNVYK-4" value="" style="points=[[0.145,0.145,0],[0.5,0,0],[0.855,0.145,0],[1,0.5,0],[0.855,0.855,0],[0.5,1,0],[0.145,0.855,0],[0,0.5,0]];shape=mxgraph.bpmn.event;html=1;verticalLabelPosition=bottom;labelBackgroundColor=#ffffff;verticalAlign=top;align=center;perimeter=ellipsePerimeter;outlineConnect=0;aspect=fixed;outline=standard;symbol=general;" vertex="1" parent="1">
          <mxGeometry x="-960" y="597.5" width="40" height="40" as="geometry" />
        </mxCell>
        <mxCell id="ll7oGi6NwLo5zgsoNVYK-5" style="edgeStyle=orthogonalEdgeStyle;rounded=0;orthogonalLoop=1;jettySize=auto;html=1;exitX=0.5;exitY=0;exitDx=0;exitDy=0;exitPerimeter=0;" edge="1" parent="1" source="ll7oGi6NwLo5zgsoNVYK-7">
          <mxGeometry relative="1" as="geometry">
            <mxPoint x="-720" y="558.5" as="targetPoint" />
            <Array as="points">
              <mxPoint x="-860" y="558.5" />
            </Array>
          </mxGeometry>
        </mxCell>
        <mxCell id="ll7oGi6NwLo5zgsoNVYK-6" style="edgeStyle=orthogonalEdgeStyle;rounded=0;orthogonalLoop=1;jettySize=auto;html=1;exitX=0.5;exitY=1;exitDx=0;exitDy=0;exitPerimeter=0;" edge="1" parent="1" source="ll7oGi6NwLo5zgsoNVYK-7">
          <mxGeometry relative="1" as="geometry">
            <mxPoint x="-720" y="677.5" as="targetPoint" />
            <Array as="points">
              <mxPoint x="-860" y="677.5" />
            </Array>
          </mxGeometry>
        </mxCell>
        <mxCell id="ll7oGi6NwLo5zgsoNVYK-7" value="" style="points=[[0.25,0.25,0],[0.5,0,0],[0.75,0.25,0],[1,0.5,0],[0.75,0.75,0],[0.5,1,0],[0.25,0.75,0],[0,0.5,0]];shape=mxgraph.bpmn.gateway2;html=1;verticalLabelPosition=bottom;labelBackgroundColor=#ffffff;verticalAlign=top;align=center;perimeter=rhombusPerimeter;outlineConnect=0;outline=none;symbol=none;gwType=parallel;" vertex="1" parent="1">
          <mxGeometry x="-880" y="597.5" width="40" height="40" as="geometry" />
        </mxCell>
        <mxCell id="ll7oGi6NwLo5zgsoNVYK-8" style="edgeStyle=orthogonalEdgeStyle;rounded=0;orthogonalLoop=1;jettySize=auto;html=1;exitX=1;exitY=0.5;exitDx=0;exitDy=0;exitPerimeter=0;entryX=0;entryY=0.5;entryDx=0;entryDy=0;entryPerimeter=0;" edge="1" parent="1" source="ll7oGi6NwLo5zgsoNVYK-4" target="ll7oGi6NwLo5zgsoNVYK-7">
          <mxGeometry relative="1" as="geometry" />
        </mxCell>
        <mxCell id="ll7oGi6NwLo5zgsoNVYK-9" value="" style="points=[[0.145,0.145,0],[0.5,0,0],[0.855,0.145,0],[1,0.5,0],[0.855,0.855,0],[0.5,1,0],[0.145,0.855,0],[0,0.5,0]];shape=mxgraph.bpmn.event;html=1;verticalLabelPosition=bottom;labelBackgroundColor=#ffffff;verticalAlign=top;align=center;perimeter=ellipsePerimeter;outlineConnect=0;aspect=fixed;outline=standard;symbol=timer;" vertex="1" parent="1">
          <mxGeometry x="-720" y="537.5" width="40" height="40" as="geometry" />
        </mxCell>
        <mxCell id="ll7oGi6NwLo5zgsoNVYK-10" value="Пользователь работает на устройстве" style="points=[[0.25,0,0],[0.5,0,0],[0.75,0,0],[1,0.25,0],[1,0.5,0],[1,0.75,0],[0.75,1,0],[0.5,1,0],[0.25,1,0],[0,0.75,0],[0,0.5,0],[0,0.25,0]];shape=mxgraph.bpmn.task;whiteSpace=wrap;rectStyle=rounded;size=10;html=1;container=1;expand=0;collapsible=0;taskMarker=abstract;" vertex="1" parent="1">
          <mxGeometry x="-720" y="647.5" width="120" height="60" as="geometry" />
        </mxCell>
        <mxCell id="ll7oGi6NwLo5zgsoNVYK-11" value="&lt;div&gt;Пользователь запускает устройство&lt;/div&gt;" style="text;html=1;align=center;verticalAlign=middle;whiteSpace=wrap;rounded=0;" vertex="1" parent="1">
          <mxGeometry x="-985" y="542.5" width="90" height="45" as="geometry" />
        </mxCell>
        <mxCell id="ll7oGi6NwLo5zgsoNVYK-12" value="&lt;div&gt;Выдержка времени&lt;/div&gt;" style="text;html=1;align=center;verticalAlign=middle;whiteSpace=wrap;rounded=0;" vertex="1" parent="1">
          <mxGeometry x="-710" y="490" width="100" height="45" as="geometry" />
        </mxCell>
        <mxCell id="ll7oGi6NwLo5zgsoNVYK-13" style="edgeStyle=orthogonalEdgeStyle;rounded=0;orthogonalLoop=1;jettySize=auto;html=1;exitX=1;exitY=0.5;exitDx=0;exitDy=0;exitPerimeter=0;" edge="1" parent="1" source="ll7oGi6NwLo5zgsoNVYK-14">
          <mxGeometry relative="1" as="geometry">
            <mxPoint x="-450" y="614.2142857142858" as="targetPoint" />
            <Array as="points">
              <mxPoint x="-485" y="613.5" />
            </Array>
          </mxGeometry>
        </mxCell>
        <mxCell id="ll7oGi6NwLo5zgsoNVYK-14" value="" style="points=[[0.25,0.25,0],[0.5,0,0],[0.75,0.25,0],[1,0.5,0],[0.75,0.75,0],[0.5,1,0],[0.25,0.75,0],[0,0.5,0]];shape=mxgraph.bpmn.gateway2;html=1;verticalLabelPosition=bottom;labelBackgroundColor=#ffffff;verticalAlign=top;align=center;perimeter=rhombusPerimeter;outlineConnect=0;outline=none;symbol=none;gwType=parallel;" vertex="1" parent="1">
          <mxGeometry x="-560" y="593.5" width="40" height="40" as="geometry" />
        </mxCell>
        <mxCell id="ll7oGi6NwLo5zgsoNVYK-15" style="edgeStyle=orthogonalEdgeStyle;rounded=0;orthogonalLoop=1;jettySize=auto;html=1;exitX=1;exitY=0.5;exitDx=0;exitDy=0;exitPerimeter=0;entryX=0.5;entryY=1;entryDx=0;entryDy=0;entryPerimeter=0;" edge="1" parent="1" source="ll7oGi6NwLo5zgsoNVYK-10" target="ll7oGi6NwLo5zgsoNVYK-14">
          <mxGeometry relative="1" as="geometry" />
        </mxCell>
        <mxCell id="ll7oGi6NwLo5zgsoNVYK-16" style="edgeStyle=orthogonalEdgeStyle;rounded=0;orthogonalLoop=1;jettySize=auto;html=1;exitX=1;exitY=0.5;exitDx=0;exitDy=0;exitPerimeter=0;entryX=0.5;entryY=0;entryDx=0;entryDy=0;entryPerimeter=0;" edge="1" parent="1" source="ll7oGi6NwLo5zgsoNVYK-9" target="ll7oGi6NwLo5zgsoNVYK-14">
          <mxGeometry relative="1" as="geometry" />
        </mxCell>
        <mxCell id="ll7oGi6NwLo5zgsoNVYK-17" value="" style="points=[[0.145,0.145,0],[0.5,0,0],[0.855,0.145,0],[1,0.5,0],[0.855,0.855,0],[0.5,1,0],[0.145,0.855,0],[0,0.5,0]];shape=mxgraph.bpmn.event;html=1;verticalLabelPosition=bottom;labelBackgroundColor=#ffffff;verticalAlign=top;align=center;perimeter=ellipsePerimeter;outlineConnect=0;aspect=fixed;outline=catching;symbol=message;" vertex="1" parent="1">
          <mxGeometry x="-450" y="597.5" width="40" height="40" as="geometry" />
        </mxCell>
        <mxCell id="ll7oGi6NwLo5zgsoNVYK-18" style="edgeStyle=orthogonalEdgeStyle;rounded=0;orthogonalLoop=1;jettySize=auto;html=1;exitX=1;exitY=0.5;exitDx=0;exitDy=0;exitPerimeter=0;" edge="1" parent="1" source="ll7oGi6NwLo5zgsoNVYK-19">
          <mxGeometry relative="1" as="geometry">
            <mxPoint x="-170" y="617.0714285714287" as="targetPoint" />
          </mxGeometry>
        </mxCell>
        <mxCell id="ll7oGi6NwLo5zgsoNVYK-19" value="Пользователь закрывает уведомляющее сообщение" style="points=[[0.25,0,0],[0.5,0,0],[0.75,0,0],[1,0.25,0],[1,0.5,0],[1,0.75,0],[0.75,1,0],[0.5,1,0],[0.25,1,0],[0,0.75,0],[0,0.5,0],[0,0.25,0]];shape=mxgraph.bpmn.task;whiteSpace=wrap;rectStyle=rounded;size=10;html=1;container=1;expand=0;collapsible=0;taskMarker=abstract;" vertex="1" parent="1">
          <mxGeometry x="-360" y="587.5" width="120" height="60" as="geometry" />
        </mxCell>
        <mxCell id="ll7oGi6NwLo5zgsoNVYK-20" style="edgeStyle=orthogonalEdgeStyle;rounded=0;orthogonalLoop=1;jettySize=auto;html=1;exitX=1;exitY=0.5;exitDx=0;exitDy=0;exitPerimeter=0;entryX=0;entryY=0.5;entryDx=0;entryDy=0;entryPerimeter=0;" edge="1" parent="1" source="ll7oGi6NwLo5zgsoNVYK-17" target="ll7oGi6NwLo5zgsoNVYK-19">
          <mxGeometry relative="1" as="geometry" />
        </mxCell>
        <mxCell id="ll7oGi6NwLo5zgsoNVYK-21" value="" style="points=[[0.145,0.145,0],[0.5,0,0],[0.855,0.145,0],[1,0.5,0],[0.855,0.855,0],[0.5,1,0],[0.145,0.855,0],[0,0.5,0]];shape=mxgraph.bpmn.event;html=1;verticalLabelPosition=bottom;labelBackgroundColor=#ffffff;verticalAlign=top;align=center;perimeter=ellipsePerimeter;outlineConnect=0;aspect=fixed;outline=end;symbol=terminate2;" vertex="1" parent="1">
          <mxGeometry x="-170" y="593.5" width="44" height="44" as="geometry" />
        </mxCell>
        <mxCell id="ll7oGi6NwLo5zgsoNVYK-22" value="&lt;div&gt;Всплытие уведомляющего сообщения&lt;/div&gt;" style="text;html=1;align=center;verticalAlign=middle;whiteSpace=wrap;rounded=0;" vertex="1" parent="1">
          <mxGeometry x="-420" y="535" width="90" height="45" as="geometry" />
        </mxCell>
        <mxCell id="ll7oGi6NwLo5zgsoNVYK-23" value="" style="edgeStyle=elbowEdgeStyle;fontSize=12;html=1;endFill=0;startFill=0;endSize=6;startSize=6;dashed=1;dashPattern=1 4;endArrow=openThin;startArrow=none;rounded=0;exitX=0.5;exitY=0;exitDx=0;exitDy=0;exitPerimeter=0;" edge="1" parent="1" source="ll7oGi6NwLo5zgsoNVYK-9">
          <mxGeometry width="160" relative="1" as="geometry">
            <mxPoint x="-570" y="477.5" as="sourcePoint" />
            <mxPoint x="-700" y="437.5" as="targetPoint" />
            <Array as="points">
              <mxPoint x="-700" y="477.5" />
            </Array>
          </mxGeometry>
        </mxCell>
        <mxCell id="ll7oGi6NwLo5zgsoNVYK-24" value="Система производит сверку времени с назначенными параметрами" style="points=[[0.25,0,0],[0.5,0,0],[0.75,0,0],[1,0.25,0],[1,0.5,0],[1,0.75,0],[0.75,1,0],[0.5,1,0],[0.25,1,0],[0,0.75,0],[0,0.5,0],[0,0.25,0]];shape=mxgraph.bpmn.task;whiteSpace=wrap;rectStyle=rounded;size=10;html=1;container=1;expand=0;collapsible=0;taskMarker=abstract;" vertex="1" parent="1">
          <mxGeometry x="-760" y="357.5" width="120" height="80" as="geometry" />
        </mxCell>
        <mxCell id="ll7oGi6NwLo5zgsoNVYK-25" value="" style="edgeStyle=elbowEdgeStyle;fontSize=12;html=1;endFill=0;startFill=0;endSize=6;startSize=6;dashed=1;dashPattern=1 4;endArrow=openThin;startArrow=none;rounded=0;" edge="1" parent="1">
          <mxGeometry width="160" relative="1" as="geometry">
            <mxPoint x="-430.71000000000004" y="437.5" as="sourcePoint" />
            <mxPoint x="-430.4200000000001" y="593.5" as="targetPoint" />
            <Array as="points">
              <mxPoint x="-430.4200000000001" y="543.5" />
            </Array>
          </mxGeometry>
        </mxCell>
        <mxCell id="ll7oGi6NwLo5zgsoNVYK-26" value="Система выводит уведомляющее сообщение" style="points=[[0.25,0,0],[0.5,0,0],[0.75,0,0],[1,0.25,0],[1,0.5,0],[1,0.75,0],[0.75,1,0],[0.5,1,0],[0.25,1,0],[0,0.75,0],[0,0.5,0],[0,0.25,0]];shape=mxgraph.bpmn.task;whiteSpace=wrap;rectStyle=rounded;size=10;html=1;container=1;expand=0;collapsible=0;taskMarker=abstract;" vertex="1" parent="1">
          <mxGeometry x="-490" y="357.5" width="120" height="80" as="geometry" />
        </mxCell>
        <mxCell id="ll7oGi6NwLo5zgsoNVYK-27" value="" style="points=[[0.145,0.145,0],[0.5,0,0],[0.855,0.145,0],[1,0.5,0],[0.855,0.855,0],[0.5,1,0],[0.145,0.855,0],[0,0.5,0]];shape=mxgraph.bpmn.event;html=1;verticalLabelPosition=bottom;labelBackgroundColor=#ffffff;verticalAlign=top;align=center;perimeter=ellipsePerimeter;outlineConnect=0;aspect=fixed;outline=standard;symbol=timer;" vertex="1" parent="1">
          <mxGeometry x="-580" y="377.5" width="40" height="40" as="geometry" />
        </mxCell>
        <mxCell id="ll7oGi6NwLo5zgsoNVYK-28" style="edgeStyle=orthogonalEdgeStyle;rounded=0;orthogonalLoop=1;jettySize=auto;html=1;exitX=1;exitY=0.5;exitDx=0;exitDy=0;exitPerimeter=0;entryX=0;entryY=0.5;entryDx=0;entryDy=0;entryPerimeter=0;" edge="1" parent="1" source="ll7oGi6NwLo5zgsoNVYK-24" target="ll7oGi6NwLo5zgsoNVYK-27">
          <mxGeometry relative="1" as="geometry" />
        </mxCell>
        <mxCell id="ll7oGi6NwLo5zgsoNVYK-29" style="edgeStyle=orthogonalEdgeStyle;rounded=0;orthogonalLoop=1;jettySize=auto;html=1;exitX=1;exitY=0.5;exitDx=0;exitDy=0;exitPerimeter=0;entryX=0;entryY=0.5;entryDx=0;entryDy=0;entryPerimeter=0;" edge="1" parent="1" source="ll7oGi6NwLo5zgsoNVYK-27" target="ll7oGi6NwLo5zgsoNVYK-26">
          <mxGeometry relative="1" as="geometry" />
        </mxCell>
        <mxCell id="ll7oGi6NwLo5zgsoNVYK-30" value="Выдержка времени" style="text;html=1;align=center;verticalAlign=middle;whiteSpace=wrap;rounded=0;" vertex="1" parent="1">
          <mxGeometry x="-610" y="327.5" width="100" height="45" as="geometry" />
        </mxCell>
        <mxCell id="ll7oGi6NwLo5zgsoNVYK-31" value="" style="endArrow=none;html=1;rounded=0;" edge="1" parent="1">
          <mxGeometry width="50" height="50" relative="1" as="geometry">
            <mxPoint x="-960" y="240" as="sourcePoint" />
            <mxPoint x="-960" y="240" as="targetPoint" />
            <Array as="points">
              <mxPoint x="-1080" y="240" />
              <mxPoint x="-1080" y="720" />
              <mxPoint x="-80" y="720" />
              <mxPoint x="-80" y="240" />
            </Array>
          </mxGeometry>
        </mxCell>
        <mxCell id="ll7oGi6NwLo5zgsoNVYK-32" value="" style="endArrow=none;html=1;rounded=0;" edge="1" parent="1">
          <mxGeometry width="50" height="50" relative="1" as="geometry">
            <mxPoint x="-1000" y="717.5" as="sourcePoint" />
            <mxPoint x="-1000" y="240" as="targetPoint" />
          </mxGeometry>
        </mxCell>
        <mxCell id="ll7oGi6NwLo5zgsoNVYK-33" value="" style="endArrow=none;html=1;rounded=0;" edge="1" parent="1">
          <mxGeometry width="50" height="50" relative="1" as="geometry">
            <mxPoint x="-1040" y="480" as="sourcePoint" />
            <mxPoint x="-80" y="480" as="targetPoint" />
            <Array as="points">
              <mxPoint x="-600" y="480" />
            </Array>
          </mxGeometry>
        </mxCell>
        <mxCell id="ll7oGi6NwLo5zgsoNVYK-34" value="" style="endArrow=none;html=1;rounded=0;" edge="1" parent="1">
          <mxGeometry width="50" height="50" relative="1" as="geometry">
            <mxPoint x="-1040" y="717.5" as="sourcePoint" />
            <mxPoint x="-1040" y="240" as="targetPoint" />
          </mxGeometry>
        </mxCell>
        <mxCell id="ll7oGi6NwLo5zgsoNVYK-35" value="Пользователь" style="text;html=1;align=center;verticalAlign=middle;whiteSpace=wrap;rounded=0;rotation=270;" vertex="1" parent="1">
          <mxGeometry x="-1050" y="602.5" width="60" height="30" as="geometry" />
        </mxCell>
        <mxCell id="ll7oGi6NwLo5zgsoNVYK-36" value="Система" style="text;html=1;align=center;verticalAlign=middle;whiteSpace=wrap;rounded=0;rotation=270;" vertex="1" parent="1">
          <mxGeometry x="-1050" y="382.5" width="60" height="30" as="geometry" />
        </mxCell>
        <mxCell id="ll7oGi6NwLo5zgsoNVYK-37" value="Процесс вывода сообщения" style="text;html=1;align=center;verticalAlign=middle;whiteSpace=wrap;rounded=0;rotation=270;" vertex="1" parent="1">
          <mxGeometry x="-1150" y="460" width="180" height="30" as="geometry" />
        </mxCell>
      </root>
    </mxGraphModel>
  </diagram>
</mxfile>
